<svg width="1em" height="0.9038461538461539em" viewBox="0 0 52 47" fill="currentColor" xmlns="http://www.w3.org/2000/svg" focusable="false"><path d="M36.194 18.18C36.194 23.7869 31.6351 29.0088 26.0111 29.0088C20.3872 29.0088 15.1494 23.7869 15.1494 18.18C15.1494 12.573 20.3872 8.02795 26.0111 8.02795C31.6351 8.02795 36.194 12.573 36.194 18.18Z" fill="#FED16D"></path><path d="M28.3252 16.4639C28.1766 16.4127 28.2536 16.2894 28.1253 16.2105C27.9979 16.1315 28.0446 16.054 27.9172 15.9766C27.7897 15.9006 27.6788 16.0916 27.5551 16.0202C27.4314 15.9495 27.4902 15.8405 27.365 15.7728C27.2398 15.7066 27.1802 15.8284 27.0595 15.769C26.9396 15.7119 27.006 15.5615 26.8823 15.5088C26.8219 15.4855 26.7759 15.5134 26.7322 15.5419C26.6892 15.572 26.6469 15.6028 26.5919 15.5833C26.5391 15.5675 26.5127 15.5577 26.487 15.5487C26.4606 15.5412 26.4425 15.5352 26.3845 15.5209C26.2351 15.4893 26.269 15.3231 26.1288 15.2953C25.993 15.2705 25.9673 15.4374 25.8497 15.4224C25.7343 15.4103 25.7509 15.3088 25.6294 15.3066C25.5065 15.3043 25.5087 15.3923 25.388 15.396C25.2666 15.4081 25.2591 15.3381 25.1346 15.3569C25.0101 15.3727 24.9936 15.281 24.8661 15.3043C24.7424 15.3359 24.7326 15.3028 24.6096 15.3404C24.5478 15.3577 24.5229 15.3833 24.4987 15.4103C24.4754 15.4366 24.4505 15.4607 24.3939 15.4833C24.283 15.5314 24.2551 15.4735 24.148 15.5299C24.0929 15.557 24.0771 15.5855 24.059 15.6111C24.0424 15.6382 24.0205 15.6607 23.9783 15.6946C23.9353 15.7269 23.9172 15.751 23.9051 15.7766C23.893 15.8021 23.8817 15.8277 23.844 15.8593C23.7799 15.9277 23.8357 15.9849 23.7912 16.0458C23.7656 16.0728 23.7512 16.0962 23.7528 16.0774C23.7512 16.0743 23.7512 16.0653 23.7482 16.0668C23.746 16.0668 23.7429 16.0676 23.7429 16.0706C23.7422 16.0743 23.712 16.0683 23.6834 16.0683C23.6547 16.0638 23.6215 16.0849 23.6177 16.1315C23.6147 16.1819 23.6132 16.209 23.6132 16.2383C23.6125 16.2661 23.6132 16.2954 23.6147 16.3548C23.6215 16.4752 23.5574 16.4812 23.5717 16.6038C23.58 16.6647 23.6313 16.6857 23.6818 16.7038C23.7067 16.7143 23.7331 16.7196 23.7535 16.7308C23.7633 16.7354 23.7724 16.7444 23.7784 16.7466C23.7844 16.7466 23.7874 16.7466 23.7874 16.7474C23.789 16.7549 23.7543 16.7722 23.7633 16.785C23.7724 16.7955 23.7995 16.7925 23.8252 16.7865C23.8516 16.7812 23.8765 16.7745 23.9051 16.7985C23.9722 16.8497 23.9534 16.8737 24.0318 16.9264C24.1118 16.9775 24.0379 17.1091 24.1382 17.1625C24.2438 17.2121 24.2875 17.1106 24.3954 17.1527C24.507 17.1933 24.5214 17.152 24.6383 17.1873C24.759 17.2204 24.7477 17.2633 24.8766 17.2933C25.0064 17.3219 25.0109 17.3039 25.1452 17.3287C25.2817 17.3512 25.2538 17.5317 25.4001 17.5528C25.548 17.5738 25.554 17.5295 25.7056 17.5498C25.8595 17.5701 25.8678 17.5039 26.0262 17.525C26.1861 17.546 26.1876 17.54 26.3513 17.5641C26.518 17.5904 26.5195 17.5806 26.6899 17.6114C26.8619 17.6445 26.8725 17.5964 27.0497 17.6378C27.2293 17.6836 27.2225 17.6987 27.4065 17.7551C27.5913 17.816 27.5966 17.8024 27.7806 17.8761C27.9639 17.9574 27.927 18.0333 28.1027 18.1266C28.191 18.1739 28.234 18.2025 28.2777 18.2281C28.3215 18.2536 28.3645 18.2837 28.4497 18.3424C28.5342 18.4055 28.599 18.407 28.6647 18.4153C28.7303 18.4228 28.7989 18.4289 28.8826 18.5108C29.0478 18.6778 29.026 18.6981 29.1738 18.8906C29.2455 18.9906 29.2507 19.0628 29.253 19.132C29.2568 19.2004 29.2553 19.2696 29.3066 19.3786C29.3533 19.4922 29.3797 19.5493 29.4008 19.6065C29.4122 19.6351 29.4227 19.6644 29.4355 19.7012C29.4461 19.7381 29.4574 19.7832 29.4695 19.8434C29.4898 19.9637 29.4959 20.0246 29.4974 20.0848C29.4989 20.1148 29.4997 20.1449 29.5012 20.1825C29.5012 20.2194 29.5012 20.2645 29.5004 20.3239C29.4951 20.442 29.5042 20.5014 29.5102 20.5615C29.517 20.6217 29.523 20.6834 29.4981 20.7984C29.4702 20.9127 29.4355 20.9638 29.3971 21.0112C29.3594 21.0594 29.3232 21.106 29.2802 21.2082C29.2357 21.3105 29.1979 21.3541 29.1587 21.3947C29.1187 21.4361 29.0818 21.4767 29.0229 21.5677C28.9015 21.7467 28.9279 21.767 28.7899 21.9272C28.6481 22.0798 28.7107 22.1445 28.5523 22.2844C28.3916 22.4167 28.4293 22.4671 28.2581 22.5859C28.1721 22.6431 28.1314 22.6739 28.0899 22.7047C28.0492 22.7371 28.0077 22.7664 27.9179 22.8145C27.8274 22.8596 27.7686 22.8551 27.7112 22.8469C27.6532 22.8393 27.5966 22.8318 27.5076 22.8679C27.3288 22.9378 27.3371 22.9612 27.1538 23.0198C27.0626 23.0484 27.015 23.0552 26.9683 23.0642C26.9215 23.0732 26.8747 23.0807 26.7827 23.101C26.6907 23.1228 26.6409 23.1138 26.5926 23.107C26.5436 23.101 26.4953 23.0935 26.4041 23.1055C26.312 23.1191 26.2668 23.1311 26.2215 23.1454C26.1763 23.1597 26.1303 23.1725 26.0375 23.1777C25.9447 23.1845 25.8979 23.1815 25.8512 23.18C25.8044 23.1785 25.7584 23.177 25.6649 23.1747C25.5721 23.1725 25.5246 23.1905 25.477 23.2108C25.4288 23.2311 25.3805 23.2507 25.2862 23.2394C25.1919 23.2289 25.1497 23.1838 25.1082 23.1401C25.0667 23.0965 25.0267 23.0537 24.937 23.0356C24.8465 23.0191 24.7982 23.0281 24.7492 23.0371C24.7001 23.0461 24.6496 23.0559 24.5598 23.0303C24.4693 23.0063 24.4309 22.9709 24.3924 22.9363C24.3539 22.9018 24.3162 22.8687 24.2302 22.8363C24.1435 22.8055 24.0997 22.7882 24.056 22.7717C24.0122 22.7551 23.967 22.7386 23.8855 22.6995C23.8025 22.6611 23.7392 22.6904 23.6758 22.7175C23.6132 22.7438 23.5446 22.7739 23.4661 22.725C23.31 22.6273 23.3945 22.4784 23.2481 22.3821C23.1056 22.2814 23.0618 22.3498 22.9215 22.2415C22.782 22.134 22.7707 22.1505 22.6349 22.037C22.5014 21.9204 22.5097 21.9106 22.38 21.7888C22.2532 21.6617 22.3015 21.6098 22.1801 21.479C22.1175 21.4158 22.0805 21.388 22.0428 21.3609C22.0051 21.3331 21.9666 21.309 21.907 21.2346C21.8474 21.1624 21.8203 21.1233 21.7939 21.0812C21.7682 21.0383 21.7403 21.003 21.686 20.9157C21.6015 20.7826 21.8429 20.6608 22.1424 20.4781C22.4418 20.2953 22.6711 20.1479 22.7186 20.2134C22.7488 20.2577 22.7797 20.2765 22.8016 20.2946C22.825 20.3126 22.8514 20.3307 22.8936 20.3758C22.9344 20.4209 22.966 20.4374 22.9939 20.454C23.0226 20.4705 23.0505 20.4871 23.101 20.5292C23.2029 20.6112 23.2278 20.5856 23.3349 20.663C23.4458 20.7375 23.3839 20.8142 23.5001 20.8894C23.6177 20.9616 23.6042 20.9811 23.7241 21.0496C23.844 21.118 23.8553 21.1007 23.9768 21.1639C24.0997 21.2225 24.1284 21.1729 24.2498 21.224C24.3109 21.2504 24.3328 21.2744 24.3569 21.3C24.3811 21.3256 24.4052 21.3504 24.464 21.3729C24.5229 21.3978 24.5508 21.4068 24.5787 21.4173C24.6066 21.4278 24.6338 21.4399 24.6949 21.4564C24.7544 21.4752 24.7944 21.4511 24.8336 21.4271C24.8729 21.403 24.9098 21.3797 24.9687 21.3902C25.0275 21.403 25.0562 21.4113 25.0848 21.4196C25.1135 21.4278 25.1429 21.4376 25.2032 21.4444C25.2628 21.4526 25.2862 21.5008 25.3111 21.5497C25.336 21.5985 25.3624 21.6497 25.4265 21.6519C25.4906 21.6564 25.5253 21.6218 25.5585 21.5865C25.5917 21.5512 25.6241 21.5181 25.6852 21.5151C25.8074 21.5151 25.8089 21.5639 25.9326 21.5579C25.9945 21.5542 26.0239 21.5331 26.0526 21.5113C26.0812 21.4887 26.1091 21.4692 26.1687 21.4602C26.2283 21.4519 26.263 21.4775 26.2985 21.5008C26.3339 21.5241 26.3709 21.5504 26.4312 21.5361C26.5527 21.509 26.5376 21.4474 26.653 21.415C26.7661 21.379 26.794 21.4572 26.9079 21.4128C27.0196 21.3662 27.0037 21.3316 27.1078 21.2804C27.2081 21.2255 27.2526 21.3015 27.3514 21.2383C27.4465 21.1729 27.4156 21.1315 27.4985 21.0639C27.5785 20.9939 27.5279 20.9413 27.5928 20.8721C27.6554 20.8007 27.574 20.7367 27.6154 20.6758C27.6539 20.6134 27.8244 20.7037 27.8644 20.6187C27.8817 20.5766 27.8749 20.551 27.8674 20.5254C27.8613 20.5006 27.8508 20.4766 27.8613 20.4374C27.8696 20.3983 27.8651 20.3773 27.8583 20.3577C27.8538 20.3374 27.8455 20.3194 27.8485 20.284C27.8485 20.2494 27.8644 20.2322 27.8772 20.2141C27.8923 20.1953 27.9036 20.1765 27.8998 20.1419C27.8923 20.1081 27.8606 20.099 27.8274 20.0938C27.7965 20.087 27.7625 20.0863 27.7542 20.0614C27.7399 20.0366 27.7459 20.0186 27.7452 19.9998C27.7467 19.981 27.7474 19.9614 27.7263 19.9329C27.6818 19.8742 27.6562 19.896 27.5996 19.8389C27.5702 19.8095 27.5604 19.7862 27.5506 19.7622C27.5423 19.7373 27.5287 19.714 27.4902 19.6839C27.405 19.6268 27.3718 19.6794 27.2813 19.6283C27.1878 19.5779 27.2051 19.5411 27.101 19.4944C26.9939 19.4516 26.9954 19.4486 26.883 19.4117C26.7684 19.3756 26.7442 19.4493 26.6236 19.4177C26.4976 19.3892 26.5089 19.3395 26.3754 19.3132C26.2404 19.2884 26.2411 19.2786 26.1001 19.2561C25.9553 19.235 25.947 19.3012 25.7976 19.2809C25.6468 19.2606 25.6581 19.1726 25.5019 19.1523C25.3435 19.1312 25.3443 19.129 25.1806 19.1057C25.0162 19.0816 25.0298 18.9959 24.8608 18.9673C24.6911 18.9357 24.67 19.0425 24.495 19.0034C24.3192 18.962 24.3177 18.9673 24.1389 18.9169C23.9594 18.862 23.9406 18.9207 23.7558 18.853C23.663 18.8184 23.6283 18.7688 23.5951 18.7206C23.5619 18.6733 23.5295 18.6229 23.4397 18.5808C23.261 18.4875 23.2036 18.589 23.0203 18.4732C22.9291 18.4146 22.8914 18.3694 22.8544 18.3288C22.8167 18.2875 22.7812 18.2424 22.6968 18.1702C22.6115 18.0927 22.5813 18.0326 22.5534 17.9739C22.5255 17.913 22.4984 17.8558 22.4177 17.7438C22.337 17.6242 22.3166 17.552 22.3008 17.4813C22.2849 17.4106 22.2736 17.34 22.2351 17.2061C22.2261 17.1723 22.2185 17.1429 22.2117 17.1166C22.2065 17.0948 22.2027 17.0753 22.1982 17.058C22.1899 17.0264 22.1838 17.0008 22.177 16.9752C22.165 16.9264 22.1529 16.8767 22.1424 16.782C22.1242 16.5917 22.0496 16.5992 22.0435 16.4052C22.0428 16.3075 22.0699 16.2578 22.0994 16.209C22.1273 16.1601 22.1567 16.1119 22.1657 16.0097C22.177 15.9021 22.1755 15.8518 22.1786 15.7788C22.1853 15.7104 22.1876 15.6374 22.2351 15.5043C22.2608 15.4389 22.2849 15.3915 22.2955 15.3479C22.3083 15.3073 22.3249 15.2682 22.3377 15.2306C22.3445 15.2118 22.352 15.1922 22.3596 15.1719C22.3664 15.1546 22.3747 15.1358 22.383 15.1155C22.3973 15.0802 22.4199 15.0434 22.4569 14.9997C22.6032 14.8238 22.5587 14.7847 22.7224 14.6275C22.8921 14.4891 22.9162 14.5162 23.0882 14.3996C23.1742 14.3387 23.227 14.3305 23.2776 14.3162C23.3288 14.3041 23.3786 14.2876 23.4661 14.2462C23.6419 14.1567 23.6803 14.2425 23.8523 14.168C23.9383 14.1327 23.9647 14.0733 23.9934 14.0101C24.0213 13.9477 24.0514 13.8845 24.1427 13.8567C24.326 13.7988 24.3449 13.871 24.5259 13.8236C24.7099 13.7868 24.7326 13.9071 24.9113 13.88C25.0901 13.8522 25.0712 13.6822 25.2606 13.6627C25.4506 13.6522 25.4514 13.701 25.6422 13.701C25.741 13.701 25.7901 13.701 25.8399 13.701C25.8904 13.701 25.9402 13.7025 26.036 13.7123C26.2253 13.7334 26.2102 13.8311 26.3829 13.8574C26.5504 13.886 26.5572 13.8552 26.7141 13.8838C26.8106 13.9026 26.8589 13.9123 26.9072 13.9221C26.9554 13.9326 27.0022 13.9432 27.0957 13.9695C27.2753 14.0266 27.3168 13.9116 27.4925 13.9763C27.663 14.0439 27.6645 14.0417 27.8282 14.1139C27.9888 14.1876 27.9813 14.2049 28.1359 14.2816C28.2898 14.359 28.2008 14.5245 28.3471 14.6027C28.4934 14.6816 28.5372 14.6042 28.6813 14.6854C28.8246 14.7674 28.7748 14.8486 28.9136 14.9313C29.0509 15.0155 29.1678 14.8283 29.2847 14.9418C29.3073 14.9629 29.3088 15.0012 29.2945 15.0524C29.2907 15.0652 29.2862 15.0787 29.2809 15.093L29.2764 15.1035C29.2711 15.114 29.2726 15.1125 29.2704 15.1178C29.2673 15.1253 29.2643 15.1328 29.2605 15.1404C29.247 15.1712 29.2304 15.2043 29.2108 15.2404C29.1323 15.384 29.0124 15.5667 28.8955 15.7517C28.7793 15.9367 28.6647 16.127 28.5666 16.2631C28.5425 16.2969 28.5183 16.3278 28.4965 16.3541C28.4912 16.3609 28.4851 16.3669 28.4799 16.3729C28.4761 16.3774 28.4768 16.3751 28.4701 16.3849L28.4618 16.3939C28.4512 16.4052 28.4406 16.4158 28.4301 16.4248C28.3893 16.4609 28.3546 16.4774 28.326 16.4669L28.3252 16.4639Z" fill="#348F41"></path><path d="M27.2308 12.4565C27.2285 12.555 27.1056 12.5467 27.1011 12.6415C27.0943 12.7355 27.0121 12.728 27.0038 12.819C26.9947 12.9092 27.1999 12.9348 27.1886 13.0273C27.178 13.1198 27.0611 13.101 27.0498 13.1904C27.0362 13.2777 27.1614 13.3002 27.1456 13.3867C27.1297 13.474 26.9751 13.4446 26.9593 13.5288C26.9427 13.6123 27.1033 13.6439 27.0867 13.7266C27.0701 13.8086 27.0656 13.8086 27.049 13.8883C27.0324 13.9688 26.8733 13.9357 26.8567 14.0154C26.8408 14.0936 27.0008 14.1259 26.9857 14.2026C26.9706 14.2793 26.874 14.2613 26.8597 14.3365C26.8454 14.4124 26.9268 14.426 26.9133 14.5004C26.9004 14.5756 26.8378 14.5651 26.8258 14.6411C26.8137 14.717 26.7194 14.7035 26.7081 14.7802C26.6968 14.8576 26.6681 14.8539 26.6568 14.9313C26.6462 15.0095 26.7088 15.0171 26.699 15.0953C26.6915 15.1735 26.6342 15.1667 26.6274 15.2464C26.6213 15.3254 26.6719 15.3314 26.6666 15.4104C26.6613 15.4901 26.7058 15.4946 26.7013 15.5743C26.6968 15.654 26.7813 15.6623 26.7775 15.7427C26.7737 15.8232 26.7511 15.8209 26.742 15.9014C26.7345 15.9819 26.6191 15.9713 26.6115 16.0526C26.606 16.1067 26.6007 16.1609 26.5957 16.215C26.5882 16.2962 26.5256 16.2909 26.5188 16.3722C26.512 16.4534 26.6922 16.4699 26.6855 16.5511C26.6787 16.6324 26.6417 16.6293 26.6349 16.7113C26.6281 16.7925 26.7134 16.8 26.7066 16.882C26.6998 16.9632 26.6734 16.961 26.6666 17.0429C26.6598 17.1242 26.5142 17.1121 26.5082 17.1933C26.5014 17.2746 26.6078 17.2843 26.601 17.3656C26.5942 17.4468 26.6364 17.4505 26.6296 17.5325C26.6229 17.6137 26.5814 17.6107 26.5746 17.6919C26.5678 17.7731 26.5851 17.7746 26.5784 17.8566C26.5716 17.9386 26.3981 17.9235 26.3913 18.0048C26.3845 18.086 26.4267 18.0897 26.42 18.1717C26.4132 18.2529 26.4765 18.2589 26.4697 18.3401C26.4629 18.4214 26.4697 18.4221 26.4629 18.5041C26.4562 18.5853 26.4652 18.5861 26.4584 18.668C26.4516 18.7492 26.4984 18.7537 26.4924 18.835C26.4856 18.9162 26.469 18.9154 26.4622 18.9966C26.4554 19.0779 26.4697 19.0794 26.4637 19.1613C26.4569 19.2425 26.3747 19.2358 26.3679 19.3177L26.3551 19.4809C26.3483 19.5621 26.4893 19.5742 26.4833 19.6561C26.4765 19.7374 26.4479 19.7351 26.4411 19.8171C26.4343 19.8983 26.3113 19.8885 26.3045 19.9697C26.2978 20.0509 26.3151 20.0524 26.3091 20.1344C26.3023 20.2156 26.2955 20.2156 26.2887 20.2969C26.2819 20.3781 26.3362 20.3826 26.3294 20.4645C26.3226 20.5458 26.2442 20.5397 26.2382 20.621C26.2314 20.7022 26.1748 20.6977 26.168 20.7796C26.1612 20.8616 26.1937 20.8639 26.1869 20.9451C26.1793 21.0263 26.2676 21.0338 26.2578 21.115C26.2487 21.1962 26.3098 21.2015 26.3 21.2827C26.2902 21.3639 26.3136 21.3662 26.3038 21.4474C26.294 21.5286 26.1786 21.5196 26.1695 21.6008C26.1605 21.682 26.1839 21.6843 26.1741 21.7655C26.165 21.8467 26.1499 21.846 26.1409 21.9272C26.1318 22.0084 26.0745 22.0039 26.0654 22.0851C26.0564 22.1663 26.0888 22.1693 26.0798 22.2505C26.0707 22.3318 26.0609 22.331 26.0519 22.413C26.0428 22.4942 26.128 22.501 26.1182 22.5822C26.1084 22.6634 25.9734 22.6529 25.9644 22.7348C25.9553 22.816 26.0292 22.8221 26.0202 22.9033C26.0111 22.9845 25.9334 22.9785 25.9244 23.0604C25.9161 23.1417 25.9191 23.1424 25.907 23.2236C25.895 23.3048 26.0926 23.3199 26.0775 23.4011C26.0624 23.4823 25.9063 23.4703 25.8935 23.5515C25.8806 23.6327 25.9538 23.638 25.9402 23.7192C25.9267 23.8004 25.947 23.8019 25.9334 23.8831C25.9199 23.9644 25.907 23.9636 25.8965 24.0448C25.8852 24.126 25.8135 24.1208 25.8029 24.202C25.7977 24.2426 25.8045 24.2636 25.8112 24.2847C25.815 24.2952 25.818 24.3058 25.8195 24.3185C25.8203 24.3253 25.821 24.3321 25.821 24.3404C25.821 24.3441 25.821 24.3486 25.821 24.3531C25.8105 24.3569 25.8143 24.3622 25.8097 24.3667C25.769 24.4456 25.7569 24.4449 25.717 24.5238C25.6845 24.584 25.4658 24.5607 25.1709 24.5381C24.8759 24.5163 24.6519 24.5065 24.63 24.4419C24.6036 24.3576 24.5772 24.3554 24.5486 24.2712L24.5456 24.2636L24.544 24.2599V24.2584H24.5433C24.5433 24.2584 24.5486 24.2584 24.538 24.2584C24.538 24.2531 24.538 24.2486 24.538 24.2448C24.538 24.2366 24.5365 24.2298 24.535 24.223C24.532 24.2103 24.5282 24.1997 24.5244 24.1892C24.5169 24.1681 24.5093 24.1471 24.5101 24.1057C24.5116 24.0238 24.4799 24.0215 24.4814 23.9388C24.4829 23.8568 24.575 23.8636 24.5757 23.7816C24.5757 23.6996 24.5968 23.7012 24.5968 23.6184C24.5968 23.5357 24.5802 23.535 24.5802 23.453C24.5802 23.371 24.5267 23.3665 24.5259 23.2845C24.5259 23.2026 24.5735 23.2063 24.5735 23.1236C24.5735 23.0416 24.575 23.0416 24.5802 22.9597C24.5848 22.8777 24.4641 22.8687 24.4679 22.7867C24.4716 22.7048 24.4852 22.7055 24.489 22.6235C24.4928 22.5416 24.6625 22.5551 24.667 22.4731C24.6715 22.3912 24.5433 22.3814 24.5471 22.2994C24.5508 22.2175 24.5961 22.2212 24.5999 22.1392C24.6036 22.0573 24.5357 22.052 24.5395 21.97C24.5433 21.8881 24.6542 21.8971 24.6587 21.8151C24.6632 21.7332 24.6059 21.7287 24.6097 21.6467C24.6134 21.5647 24.6911 21.5707 24.6949 21.4888C24.6994 21.4068 24.664 21.4038 24.6685 21.3218C24.6723 21.2399 24.7545 21.2466 24.759 21.1647C24.7635 21.0827 24.7138 21.0789 24.7183 20.997C24.7221 20.915 24.6549 20.9097 24.661 20.8278C24.6677 20.7458 24.5704 20.7383 24.5772 20.6563C24.584 20.5743 24.7681 20.5894 24.7749 20.5074C24.7816 20.4254 24.7243 20.4209 24.7311 20.339C24.7379 20.257 24.7062 20.2547 24.7138 20.1728C24.7205 20.0908 24.7786 20.0961 24.7854 20.0141C24.7922 19.9321 24.6806 19.9231 24.6874 19.8411C24.6941 19.7592 24.7334 19.7629 24.7402 19.681C24.7469 19.599 24.7145 19.5967 24.7213 19.5148C24.7281 19.4328 24.7749 19.4366 24.7816 19.3553C24.7884 19.2734 24.7281 19.2689 24.7349 19.1869C24.7417 19.1049 24.7816 19.1087 24.7884 19.0267C24.794 18.9721 24.7995 18.9177 24.805 18.8635C24.8118 18.7816 24.7394 18.7756 24.7462 18.6936C24.753 18.6116 24.8013 18.6161 24.808 18.5342C24.8148 18.4522 24.8246 18.4529 24.8314 18.3717C24.8382 18.2898 24.7741 18.2845 24.7809 18.2025C24.7877 18.1206 24.8729 18.1281 24.8797 18.0461C24.8852 17.9915 24.8905 17.9371 24.8955 17.8829C24.9023 17.801 24.9853 17.8085 24.9921 17.7265C24.9989 17.6445 24.8963 17.6355 24.9031 17.5543C24.9099 17.4723 24.9053 17.4723 24.9121 17.3904C24.9189 17.3084 24.8616 17.3039 24.8684 17.2219C24.8752 17.14 24.9944 17.1505 25.0011 17.0685C25.0079 16.9865 24.8986 16.9775 24.9053 16.8956C24.9114 16.8136 24.9551 16.8173 24.9612 16.7361C24.9672 16.6542 25.0434 16.6609 25.0494 16.579C25.0554 16.497 25.1173 16.5023 25.1233 16.421C25.1294 16.3391 25.1135 16.3376 25.1203 16.2564C25.1271 16.1744 25.0539 16.1684 25.0607 16.0864C25.0675 16.0044 25.1731 16.0142 25.1799 15.9315C25.1867 15.8495 25.1467 15.8458 25.1543 15.763C25.161 15.6803 25.0864 15.6736 25.0977 15.5908C25.109 15.5081 25.0449 15.5021 25.057 15.4186C25.069 15.3352 25.109 15.3389 25.1218 15.2554C25.1346 15.172 25.192 15.178 25.2048 15.0938C25.2176 15.0095 25.3081 15.0201 25.3202 14.9366C25.33 14.8524 25.1429 14.8291 25.1528 14.7433C25.1641 14.6576 25.2312 14.6666 25.2433 14.5816C25.2553 14.4959 25.3775 14.514 25.3904 14.429C25.4032 14.344 25.2357 14.3169 25.2493 14.2305C25.2636 14.144 25.3134 14.1523 25.3285 14.0665C25.3436 13.9808 25.336 13.9793 25.3519 13.8951C25.3677 13.8108 25.4597 13.8296 25.4756 13.7469C25.4914 13.6657 25.4613 13.6589 25.4771 13.5792C25.4929 13.4988 25.4854 13.498 25.5012 13.4191C25.5163 13.3408 25.4024 13.3183 25.4168 13.2416C25.4253 13.191 25.4336 13.1406 25.4416 13.0904C25.4552 13.0152 25.4718 13.0197 25.4854 12.946C25.4982 12.8746 25.674 12.9002 25.6845 12.8265C25.6958 12.7535 25.6129 12.743 25.6227 12.6723C25.6317 12.6016 25.7192 12.6107 25.7268 12.5392C25.7328 12.4685 25.5435 12.4557 25.548 12.3911C25.5518 12.3414 25.9681 12.3602 26.386 12.373C26.8046 12.3858 27.2361 12.3858 27.2346 12.4625L27.2308 12.4565Z" fill="#348F41"></path><path d="M12.6455 35.1767C12.6787 35.1105 12.7843 35.1624 12.8175 35.0962C12.8507 35.03 12.9223 35.0654 12.9548 34.9992C12.988 34.933 12.8099 34.845 12.8424 34.7789C12.8756 34.7127 12.9759 34.7616 13.0083 34.6954C13.0415 34.6292 12.9321 34.5751 12.9646 34.5089C12.997 34.4427 13.132 34.5089 13.1645 34.442C13.1976 34.3758 13.0566 34.3066 13.0898 34.2404C13.123 34.1742 13.126 34.1758 13.1592 34.1096C13.1924 34.0434 13.3319 34.1118 13.3643 34.0457C13.3975 33.9795 13.2565 33.9103 13.2897 33.8434C13.3229 33.7772 13.4066 33.8186 13.4398 33.7524C13.473 33.6862 13.4013 33.6509 13.4345 33.5847C13.4677 33.5185 13.522 33.5456 13.5552 33.4786C13.5884 33.4125 13.6706 33.4531 13.703 33.3869C13.7362 33.3207 13.7611 33.3328 13.7943 33.2666C13.8275 33.2004 13.7724 33.1733 13.8056 33.1072C13.8388 33.041 13.8893 33.0658 13.9218 32.9996C13.9549 32.9334 13.9112 32.9116 13.9436 32.8455C13.9761 32.7793 13.9384 32.7605 13.9715 32.6943C14.0047 32.6281 13.9331 32.5928 13.9655 32.5266C13.9987 32.4604 14.0183 32.4702 14.0515 32.404C14.0847 32.3379 14.1805 32.3852 14.2137 32.3191C14.2469 32.2529 14.2469 32.2529 14.28 32.1867C14.3132 32.1205 14.366 32.1461 14.3985 32.0799C14.4317 32.0138 14.2793 31.9386 14.3125 31.8724C14.3457 31.8062 14.3766 31.8212 14.409 31.7551C14.4415 31.6889 14.3698 31.6535 14.403 31.5866C14.4362 31.5204 14.4573 31.531 14.4905 31.4648C14.5237 31.3986 14.6459 31.4588 14.6783 31.3926C14.7115 31.3264 14.6217 31.2821 14.6549 31.2159C14.6881 31.1497 14.6527 31.1324 14.6851 31.0655C14.7183 30.9993 14.753 31.0166 14.7862 30.9497C14.8194 30.8835 14.805 30.876 14.8375 30.8098C14.8707 30.7436 15.017 30.8158 15.0494 30.7489C15.0826 30.6827 15.0472 30.6654 15.0796 30.5985C15.1128 30.5323 15.0592 30.506 15.0924 30.4398C15.1256 30.3736 15.1203 30.3706 15.1528 30.3045C15.1859 30.2383 15.1784 30.2345 15.2108 30.1683C15.244 30.1022 15.204 30.0826 15.2372 30.0164C15.2704 29.9503 15.284 29.957 15.3172 29.8909C15.3504 29.8247 15.3383 29.8187 15.3707 29.7525C15.4032 29.6863 15.4726 29.7202 15.5058 29.654C15.5279 29.6099 15.5498 29.5655 15.5714 29.5209C15.6046 29.4547 15.4861 29.396 15.5186 29.3299C15.5518 29.2637 15.5759 29.2757 15.6091 29.2088C15.6423 29.1426 15.7456 29.1938 15.7781 29.1268C15.8112 29.0606 15.7962 29.0531 15.8293 28.987C15.8625 28.9208 15.8678 28.9238 15.901 28.8569C15.9342 28.7907 15.8882 28.7681 15.9214 28.7019C15.9546 28.6358 16.0194 28.6681 16.0526 28.6012C16.0858 28.535 16.1333 28.5583 16.1658 28.4921C16.1989 28.426 16.1718 28.4124 16.205 28.3462C16.2382 28.2801 16.1658 28.2447 16.1989 28.1778C16.2321 28.1116 16.1801 28.0861 16.2133 28.0199C16.2465 27.9537 16.2269 27.9439 16.2593 27.8778C16.2925 27.8116 16.3905 27.8597 16.4237 27.7935C16.4569 27.7274 16.4365 27.7176 16.4697 27.6506C16.5029 27.5845 16.515 27.5905 16.5482 27.5243C16.5814 27.4581 16.6304 27.4822 16.6636 27.416C16.6968 27.3498 16.6681 27.3356 16.7005 27.2694C16.7337 27.2032 16.742 27.207 16.7745 27.1408C16.8077 27.0746 16.7315 27.037 16.7647 26.9708C16.7979 26.9047 16.9185 26.9641 16.9517 26.8979C16.9849 26.8317 16.9178 26.7986 16.9517 26.7325C16.9849 26.6663 17.0551 26.7009 17.0883 26.6347C17.1214 26.5685 17.1169 26.5663 17.1493 26.5001C17.1825 26.4339 16.9985 26.3429 17.0309 26.2767C17.0634 26.2106 17.212 26.2835 17.2451 26.2173C17.2783 26.1512 17.2074 26.1158 17.2399 26.0496C17.273 25.9835 17.2519 25.9729 17.2851 25.9068C17.3183 25.8406 17.3296 25.8458 17.3621 25.7797C17.3952 25.7135 17.4677 25.7488 17.5008 25.6827C17.534 25.6165 17.4941 25.5969 17.5272 25.53C17.5604 25.4638 17.574 25.4706 17.6064 25.4037C17.6313 25.3525 17.9082 25.4969 18.274 25.6766C18.6391 25.8564 18.9264 25.9902 18.9016 26.0414C18.8684 26.1075 18.8985 26.1226 18.8653 26.1888C18.8322 26.2549 18.8661 26.2715 18.8337 26.3384C18.8005 26.4046 18.8337 26.4211 18.8005 26.4873C18.7673 26.5535 18.6738 26.5076 18.6413 26.5738C18.6081 26.64 18.5878 26.6302 18.5553 26.6964C18.5221 26.7625 18.5387 26.7708 18.5063 26.837C18.4739 26.9032 18.5244 26.9287 18.492 26.9949C18.4588 27.0611 18.4143 27.0393 18.3811 27.1054C18.3479 27.1716 18.3449 27.1701 18.3125 27.2363C18.2793 27.3025 18.3886 27.3566 18.3562 27.4228C18.323 27.489 18.3109 27.483 18.2785 27.5491C18.2453 27.6153 18.0937 27.5409 18.0605 27.607C18.0273 27.6732 18.142 27.7296 18.1088 27.7958C18.0756 27.862 18.0364 27.8424 18.0032 27.9086C17.97 27.9748 18.0304 28.0041 17.9972 28.071C17.964 28.1372 17.8674 28.0898 17.835 28.156C17.8018 28.2222 17.8516 28.247 17.8192 28.3132C17.786 28.3793 17.7203 28.347 17.6872 28.4132C17.654 28.4794 17.6841 28.4944 17.6517 28.5606C17.6185 28.6267 17.5491 28.5929 17.5167 28.6591C17.4835 28.7253 17.5257 28.7463 17.4925 28.8125C17.4594 28.8787 17.5174 28.9072 17.485 28.9734C17.4526 29.0396 17.534 29.0802 17.5008 29.1464C17.4677 29.2126 17.3138 29.1366 17.2813 29.2035C17.2482 29.2697 17.2964 29.2938 17.2632 29.3599C17.2301 29.4261 17.2565 29.4389 17.224 29.5058C17.1908 29.572 17.1426 29.5479 17.1094 29.6149C17.0762 29.681 17.1697 29.7269 17.1373 29.7938C17.1041 29.86 17.0717 29.8442 17.0385 29.9104C17.0053 29.9766 17.0324 29.9901 17 30.0563C16.9668 30.1225 16.9283 30.1037 16.8952 30.1698C16.862 30.236 16.9133 30.2616 16.8801 30.3278C16.8469 30.3939 16.8137 30.3774 16.7813 30.4443C16.7481 30.5105 16.7466 30.5098 16.7134 30.5759C16.6802 30.6421 16.7413 30.6722 16.7088 30.7384C16.6757 30.8045 16.6357 30.785 16.6025 30.8512C16.5693 30.9173 16.5618 30.9136 16.5286 30.9798C16.4954 31.0459 16.5497 31.0722 16.5165 31.1392C16.4833 31.2054 16.4117 31.17 16.3792 31.2369C16.346 31.3031 16.3445 31.3024 16.3113 31.3685C16.2781 31.4347 16.2088 31.4009 16.1756 31.467C16.1424 31.5332 16.2291 31.5761 16.1967 31.6423C16.1635 31.7084 16.168 31.7107 16.1348 31.7769C16.1016 31.843 16.1507 31.8671 16.1175 31.9333C16.0843 31.9995 15.984 31.9498 15.9515 32.0168C15.9184 32.0829 16.0111 32.1288 15.9779 32.195C15.9448 32.2612 15.9085 32.2431 15.8761 32.31C15.8429 32.3762 15.7796 32.3454 15.7471 32.4116C15.7139 32.4777 15.6627 32.4529 15.6302 32.5191C15.597 32.5853 15.6106 32.592 15.5782 32.6582C15.545 32.7244 15.6061 32.7545 15.5729 32.8206C15.5397 32.8868 15.4515 32.8432 15.419 32.9101C15.3858 32.9763 15.419 32.9929 15.3866 33.059C15.3534 33.1252 15.4175 33.1568 15.3843 33.223C15.3511 33.2891 15.4062 33.3162 15.373 33.3824C15.3398 33.4486 15.3059 33.432 15.2734 33.4982C15.2403 33.5644 15.1912 33.5403 15.158 33.6065C15.1248 33.6727 15.0472 33.6343 15.014 33.7005C14.9808 33.7667 15.1452 33.8479 15.112 33.9141C15.0788 33.9802 15.02 33.9517 14.9868 34.0178C14.9536 34.084 14.8465 34.0314 14.8141 34.0975C14.7809 34.1637 14.928 34.2359 14.8948 34.3028C14.8616 34.369 14.8186 34.348 14.7854 34.4141C14.7522 34.4803 14.7598 34.4841 14.7266 34.5502C14.6934 34.6164 14.6127 34.5773 14.5803 34.6435C14.5471 34.7097 14.5742 34.7232 14.541 34.7894C14.5078 34.8556 14.5146 34.8586 14.4814 34.9255C14.4483 34.9917 14.5486 35.0413 14.5154 35.1075C14.4822 35.1737 14.4845 35.1744 14.4513 35.2413C14.4181 35.3075 14.4022 35.3 14.3698 35.3662C14.3366 35.4323 14.1858 35.3579 14.1526 35.4241C14.1194 35.4902 14.1918 35.5263 14.1594 35.5925C14.1262 35.6587 14.0507 35.6218 14.0176 35.688C13.9844 35.7542 14.1511 35.8362 14.1179 35.9031C14.093 35.9542 13.7324 35.767 13.3674 35.5873C13.0023 35.4075 12.6214 35.2293 12.647 35.1789L12.6455 35.1767Z" fill="#E74F3D"></path><path d="M26.5834 29.4554C26.5502 29.5224 26.4438 29.4697 26.4114 29.5366C26.3782 29.6036 26.3065 29.5682 26.2733 29.6344C26.2402 29.7013 26.4182 29.7886 26.385 29.8555C26.3518 29.9224 26.2515 29.8728 26.2183 29.9397C26.1851 30.0066 26.2945 30.06 26.2613 30.127C26.2281 30.1939 26.0938 30.127 26.0606 30.1946C26.0274 30.2616 26.1677 30.3308 26.1346 30.3969C26.1014 30.4639 26.0976 30.4616 26.0644 30.5285C26.0312 30.5955 25.8917 30.5263 25.8585 30.5932C25.8253 30.6601 25.9656 30.7293 25.9332 30.7962C25.9 30.8632 25.8155 30.8218 25.7823 30.888C25.7491 30.9549 25.82 30.9895 25.7868 31.0564C25.7536 31.1234 25.6993 31.0963 25.6661 31.1632C25.633 31.2301 25.5507 31.1895 25.5175 31.2557C25.4844 31.3219 25.4595 31.3099 25.4263 31.3768C25.3931 31.4437 25.4482 31.4708 25.415 31.537C25.3818 31.6039 25.3312 31.5791 25.2981 31.6453C25.2649 31.7122 25.3086 31.7332 25.2754 31.8002C25.2422 31.8671 25.2807 31.8859 25.2475 31.9521C25.2143 32.019 25.286 32.0543 25.2528 32.1205C25.2196 32.1867 25.1992 32.1769 25.1661 32.2438C25.1329 32.3108 25.0371 32.2634 25.0039 32.3303C24.9707 32.3973 24.9699 32.3965 24.9367 32.4634C24.9036 32.5304 24.8508 32.504 24.8176 32.571C24.7844 32.6379 24.936 32.7123 24.9036 32.7793C24.8704 32.8462 24.8394 32.8312 24.8063 32.8973C24.7731 32.9643 24.8455 32.9996 24.8123 33.0665C24.7791 33.1335 24.7572 33.1222 24.724 33.1891C24.6908 33.256 24.5687 33.1959 24.5355 33.2621C24.5023 33.329 24.5913 33.3726 24.5581 33.4395C24.5249 33.5065 24.5604 33.5237 24.5272 33.5907C24.494 33.6576 24.4593 33.6403 24.4261 33.7072C24.3929 33.7742 24.4072 33.7809 24.3741 33.8479C24.3409 33.9148 24.1945 33.8426 24.1613 33.9095C24.1282 33.9765 24.1636 33.9937 24.1304 34.0607C24.0972 34.1276 24.15 34.1532 24.1168 34.2201C24.0836 34.287 24.0889 34.2893 24.0557 34.3562C24.0226 34.4231 24.0301 34.4269 23.9969 34.4931C23.9637 34.56 24.0029 34.5796 23.9698 34.6457C23.9366 34.7127 23.923 34.7059 23.8898 34.7721C23.8566 34.839 23.8687 34.845 23.8355 34.9112C23.8023 34.9781 23.7337 34.9443 23.7005 35.0105C23.6783 35.0551 23.6562 35.0997 23.6341 35.1443C23.6009 35.2112 23.7193 35.2691 23.6861 35.3361C23.653 35.403 23.6288 35.391 23.5956 35.4579C23.5624 35.5248 23.4591 35.4737 23.4259 35.5406C23.3927 35.6075 23.4078 35.6143 23.3746 35.6812C23.3414 35.7482 23.3354 35.7452 23.303 35.8121C23.2698 35.879 23.315 35.9016 23.2826 35.9678C23.2494 36.0347 23.1838 36.0023 23.1506 36.0693C23.1174 36.1362 23.0699 36.1129 23.0367 36.1791C23.0035 36.246 23.0307 36.2588 22.9975 36.3257C22.9643 36.3926 23.0359 36.428 23.0035 36.4949C22.9703 36.5618 23.0216 36.5866 22.9884 36.6536C22.9552 36.7205 22.9749 36.7303 22.9417 36.7965C22.9085 36.8626 22.8097 36.8145 22.7772 36.8814C22.744 36.9484 22.7644 36.9581 22.7312 37.0251C22.698 37.092 22.6852 37.086 22.6528 37.1522C22.6196 37.2191 22.5698 37.1943 22.5366 37.2612C22.5034 37.3281 22.5321 37.3417 22.4989 37.4086C22.4657 37.4755 22.4574 37.471 22.4242 37.5379C22.391 37.6049 22.4665 37.6417 22.434 37.7086C22.4008 37.7756 22.2802 37.7162 22.247 37.7823C22.2138 37.8493 22.2802 37.8816 22.247 37.9485C22.2138 38.0154 22.1436 37.9809 22.1104 38.047C22.0772 38.114 22.0818 38.1162 22.0486 38.1824C22.0154 38.2493 22.1994 38.3396 22.1663 38.4065C22.1331 38.4734 21.9845 38.4005 21.9513 38.4666C21.9181 38.5328 21.989 38.5682 21.9558 38.6351C21.9226 38.702 21.943 38.7118 21.9106 38.7787C21.8774 38.8457 21.866 38.8396 21.8329 38.9066C21.7997 38.9735 21.7265 38.9374 21.6933 39.0043C21.6601 39.0713 21.7001 39.0908 21.6669 39.1577C21.6337 39.2247 21.6202 39.2179 21.587 39.2848C21.5613 39.336 21.2845 39.1923 20.9194 39.0118C20.5543 38.8321 20.267 38.6983 20.2926 38.6471C20.3258 38.5802 20.2964 38.5659 20.3296 38.499C20.3628 38.4321 20.3288 38.4155 20.362 38.3486C20.3952 38.2817 20.362 38.2659 20.3952 38.1989C20.4284 38.132 20.5219 38.1786 20.5551 38.1117C20.5883 38.0448 20.6087 38.0553 20.6418 37.9884C20.675 37.9214 20.6584 37.9139 20.6916 37.847C20.7248 37.7801 20.6735 37.7553 20.7067 37.6883C20.7399 37.6214 20.7844 37.644 20.8176 37.577C20.8508 37.5101 20.8538 37.5116 20.887 37.4454C20.9202 37.3785 20.8108 37.3251 20.844 37.2582C20.8772 37.1913 20.8892 37.1973 20.9224 37.1303C20.9556 37.0634 21.1072 37.1386 21.1404 37.0717C21.1736 37.0048 21.0597 36.9491 21.0929 36.8822C21.1261 36.8153 21.1653 36.8348 21.1985 36.7686C21.2317 36.7025 21.1714 36.6724 21.2045 36.6054C21.2377 36.5385 21.3343 36.5859 21.3675 36.5197C21.4007 36.4528 21.3509 36.4287 21.3841 36.3618C21.4172 36.2949 21.4836 36.328 21.5168 36.261C21.55 36.1941 21.5198 36.1798 21.553 36.1129C21.5862 36.046 21.6556 36.0805 21.6888 36.0136C21.722 35.9467 21.6805 35.9264 21.7137 35.8595C21.7469 35.7925 21.6888 35.764 21.722 35.697C21.7552 35.6301 21.6737 35.5902 21.7061 35.5233C21.7393 35.4564 21.8932 35.5323 21.9264 35.4654C21.9596 35.3985 21.9113 35.3752 21.9445 35.3082C21.9777 35.2413 21.9513 35.2285 21.9845 35.1616C22.0177 35.0947 22.0659 35.1187 22.0991 35.0518C22.1323 34.9849 22.0388 34.939 22.072 34.8721C22.1052 34.8052 22.1376 34.8217 22.1708 34.7548C22.204 34.6878 22.1768 34.6743 22.21 34.6081C22.2432 34.5412 22.2817 34.5608 22.3148 34.4938C22.348 34.4269 22.2967 34.4021 22.3299 34.3352C22.3631 34.2682 22.3963 34.2848 22.4295 34.2178C22.4627 34.1509 22.465 34.1524 22.4981 34.0855C22.5313 34.0186 22.4702 33.9885 22.5034 33.9216C22.5366 33.8546 22.5766 33.8749 22.6098 33.808C22.643 33.7411 22.6505 33.7448 22.6837 33.6787C22.7169 33.6117 22.6633 33.5854 22.6965 33.5185C22.7297 33.4516 22.8014 33.4869 22.8346 33.42C22.8677 33.353 22.87 33.3545 22.9032 33.2876C22.9364 33.2207 23.0058 33.2553 23.039 33.1884C23.0722 33.1214 22.9854 33.0786 23.0186 33.0124C23.0518 32.9455 23.048 32.944 23.0805 32.877C23.1136 32.8101 23.0654 32.786 23.0978 32.7199C23.131 32.6529 23.2313 32.7026 23.2645 32.6356C23.2977 32.5687 23.2049 32.5236 23.2381 32.4567C23.2713 32.3897 23.3075 32.4078 23.3407 32.3409C23.3739 32.2739 23.4372 32.3055 23.4704 32.2386C23.5036 32.1717 23.5549 32.1972 23.5881 32.1303C23.6213 32.0634 23.6077 32.0566 23.6409 31.9904C23.6741 31.9235 23.613 31.8934 23.6462 31.8272C23.6794 31.7603 23.7676 31.8039 23.8008 31.737C23.834 31.6701 23.8008 31.6535 23.8332 31.5873C23.8664 31.5204 23.8031 31.4896 23.8362 31.4227C23.8694 31.3557 23.8151 31.3294 23.8483 31.2625C23.8815 31.1956 23.9154 31.2129 23.9486 31.1459C23.9818 31.079 24.0308 31.1038 24.064 31.0369C24.0972 30.97 24.1757 31.0083 24.2089 30.9421C24.242 30.8752 24.0784 30.7947 24.1116 30.7278C24.1447 30.6609 24.2036 30.6902 24.2368 30.6233C24.27 30.5564 24.3771 30.609 24.4103 30.5428C24.4434 30.4759 24.2971 30.4037 24.3303 30.3368C24.3635 30.2698 24.4072 30.2917 24.4397 30.2247C24.4721 30.1578 24.4653 30.1548 24.4985 30.0879C24.5317 30.0209 24.6124 30.0608 24.6456 29.9939C24.6788 29.9269 24.6516 29.9141 24.6848 29.8472C24.718 29.7803 24.7112 29.7773 24.7444 29.7104C24.7776 29.6434 24.6773 29.5945 24.7105 29.5276C24.7436 29.4607 24.7421 29.4599 24.7753 29.393C24.8085 29.3261 24.8244 29.3344 24.8575 29.2674C24.8907 29.2005 25.0423 29.2749 25.0748 29.2088C25.108 29.1418 25.0356 29.1065 25.0687 29.0396C25.1019 28.9726 25.1781 29.0102 25.2113 28.9433C25.2445 28.8764 25.0786 28.7944 25.1117 28.7275C25.1374 28.6764 25.4972 28.8636 25.8623 29.0433C26.2273 29.2231 26.6082 29.4013 26.5826 29.4524L26.5834 29.4554Z" fill="#E74F3D"></path><path d="M30.2928 39.3834C30.2604 39.3157 30.3668 39.2646 30.3336 39.1969C30.3004 39.1292 30.3728 39.0946 30.3396 39.0277C30.3072 38.96 30.1284 39.0465 30.096 38.9795C30.0628 38.9119 30.1639 38.8637 30.1307 38.7961C30.0975 38.7284 29.9881 38.7818 29.9557 38.7141C29.9232 38.6464 30.0575 38.5817 30.0251 38.5141C29.9926 38.4464 29.8516 38.5148 29.8184 38.4479C29.7852 38.381 29.789 38.3787 29.7565 38.3118C29.7241 38.2448 29.8637 38.1764 29.8312 38.1095C29.798 38.0418 29.6577 38.1102 29.6245 38.0433C29.5914 37.9756 29.6766 37.935 29.6434 37.8673C29.6102 37.7997 29.5393 37.8342 29.5061 37.7673C29.4729 37.7004 29.528 37.6733 29.4956 37.6064C29.4631 37.5387 29.5453 37.4989 29.5129 37.4319C29.4805 37.3642 29.5054 37.3522 29.4729 37.2853C29.4397 37.2176 29.3854 37.2447 29.3523 37.177C29.3191 37.1093 29.3704 37.0853 29.3372 37.0176C29.304 36.9499 29.2602 36.9717 29.2278 36.904C29.1946 36.8363 29.1569 36.8551 29.1237 36.7875C29.0905 36.7198 29.0189 36.7551 28.9864 36.6874C28.9532 36.6198 28.9736 36.61 28.9412 36.5431C28.908 36.4754 29.0045 36.4288 28.9721 36.3618C28.9397 36.2949 28.9397 36.2942 28.9072 36.2265C28.8748 36.1588 28.9276 36.1332 28.8944 36.0663C28.8612 35.9994 28.7096 36.0723 28.6764 36.0054C28.6432 35.9385 28.6749 35.9227 28.6417 35.8557C28.6085 35.7881 28.5369 35.8234 28.5037 35.7557C28.4705 35.688 28.4924 35.6775 28.4599 35.6106C28.4267 35.5429 28.5497 35.4835 28.5173 35.4166C28.4841 35.3489 28.3951 35.3925 28.3619 35.3248C28.3287 35.2571 28.294 35.2744 28.2608 35.2075C28.2276 35.1406 28.2631 35.1233 28.2306 35.0556C28.1974 34.9879 28.1839 34.9954 28.1507 34.9278C28.1175 34.8601 28.2646 34.7894 28.2321 34.7217C28.1989 34.654 28.1635 34.6713 28.1311 34.6044C28.0986 34.5375 28.0451 34.563 28.0126 34.4954C27.9802 34.4277 27.9749 34.4307 27.9417 34.363C27.9085 34.2953 27.9018 34.2991 27.8686 34.2322C27.8354 34.1645 27.7962 34.184 27.7637 34.1164C27.7305 34.0487 27.7449 34.0419 27.7124 33.975C27.6792 33.9073 27.6672 33.9133 27.6347 33.8464C27.6023 33.7795 27.6709 33.7456 27.6385 33.6779C27.6164 33.6328 27.5945 33.588 27.5729 33.5433C27.5397 33.4757 27.4213 33.5336 27.3881 33.4659C27.3549 33.3982 27.3798 33.3869 27.3466 33.3192C27.3134 33.2516 27.4175 33.2019 27.3851 33.1342C27.3526 33.0666 27.3376 33.0741 27.3051 33.0064C27.2719 32.9387 27.278 32.9365 27.2455 32.8688C27.2131 32.8011 27.1671 32.8237 27.1347 32.756C27.1022 32.6883 27.1678 32.6567 27.1347 32.5898C27.1015 32.5221 27.1497 32.4996 27.1165 32.4319C27.0834 32.3642 27.057 32.3777 27.0238 32.3101C26.9906 32.2424 26.9189 32.2777 26.8857 32.21C26.8525 32.1424 26.8013 32.1679 26.7688 32.1002C26.7356 32.0326 26.7168 32.0423 26.6836 31.9747C26.6504 31.907 26.75 31.8596 26.7168 31.7919C26.6836 31.7242 26.664 31.734 26.6308 31.6671C26.5976 31.5994 26.6104 31.5934 26.578 31.5265C26.5448 31.4588 26.5946 31.4347 26.5621 31.3678C26.529 31.3001 26.5011 31.3144 26.4679 31.2467C26.4347 31.179 26.4437 31.1753 26.4105 31.1076C26.3773 31.0399 26.3019 31.0768 26.2687 31.0098C26.2355 30.9422 26.357 30.8835 26.3245 30.8166C26.2921 30.7497 26.225 30.7812 26.1918 30.7143C26.1586 30.6466 26.2295 30.6128 26.1971 30.5451C26.1639 30.4774 26.1601 30.4797 26.1269 30.4128C26.0937 30.3458 25.9097 30.4346 25.8765 30.3676C25.8433 30.3007 25.9927 30.2278 25.9595 30.1608C25.9263 30.0932 25.8554 30.1278 25.8229 30.0601C25.7898 29.9924 25.7694 30.0029 25.7362 29.9352C25.703 29.8676 25.7151 29.8623 25.6819 29.7946C25.6487 29.7269 25.7226 29.6916 25.6894 29.6239C25.6563 29.5562 25.617 29.5758 25.5838 29.5081C25.5507 29.4404 25.565 29.4337 25.5318 29.3667C25.5069 29.3148 25.7905 29.1855 26.1571 29.008C26.5237 28.8306 26.8058 28.6862 26.8307 28.7381C26.8631 28.8057 26.8933 28.7907 26.9257 28.8584C26.9581 28.9261 26.9928 28.9095 27.0253 28.9764C27.0585 29.0441 27.0909 29.0276 27.1241 29.0953C27.1573 29.1629 27.063 29.2081 27.0954 29.2757C27.1286 29.3434 27.1075 29.3532 27.1407 29.4201C27.1739 29.487 27.1897 29.4795 27.2229 29.5472C27.2553 29.6149 27.3066 29.5901 27.3398 29.657C27.373 29.7239 27.3277 29.7457 27.3602 29.8134C27.3926 29.8811 27.3896 29.8826 27.4228 29.9495C27.456 30.0172 27.5653 29.9638 27.5978 30.0315C27.631 30.0992 27.6181 30.1052 27.6513 30.1721C27.6845 30.239 27.5314 30.3135 27.5646 30.3804C27.5978 30.4481 27.7117 30.3925 27.7449 30.4594C27.7781 30.5271 27.7381 30.5459 27.7705 30.6135C27.8029 30.6812 27.8633 30.6519 27.8965 30.7188C27.9297 30.7865 27.8324 30.8331 27.8656 30.9001C27.8987 30.9677 27.9478 30.9437 27.981 31.0106C28.0141 31.0775 27.947 31.1099 27.9802 31.1775C28.0134 31.2452 28.0428 31.2302 28.076 31.2979C28.1084 31.3655 28.039 31.3986 28.0722 31.4663C28.1054 31.534 28.1469 31.5137 28.1793 31.5806C28.2118 31.6475 28.2706 31.6197 28.303 31.6874C28.3355 31.7551 28.4177 31.7152 28.4509 31.7822C28.4841 31.8498 28.3294 31.9243 28.3619 31.992C28.3951 32.0596 28.4426 32.0363 28.4758 32.1033C28.509 32.1709 28.5346 32.1582 28.5678 32.2251C28.601 32.2928 28.552 32.3161 28.5844 32.3838C28.6168 32.4514 28.7111 32.4056 28.7435 32.4732C28.7767 32.5409 28.7435 32.5567 28.776 32.6236C28.8092 32.6913 28.8363 32.6778 28.8688 32.7455C28.9019 32.8131 28.8627 32.8319 28.8952 32.8989C28.9283 32.9666 28.9789 32.9417 29.0121 33.0087C29.0453 33.0763 29.0121 33.0921 29.0445 33.1598C29.0777 33.2275 29.0754 33.2282 29.1079 33.2959C29.1411 33.3636 29.2021 33.3335 29.2346 33.4012C29.2678 33.4689 29.227 33.4884 29.2595 33.5554C29.2927 33.623 29.2844 33.6268 29.3168 33.6937C29.3492 33.7607 29.4035 33.7351 29.436 33.8028C29.4684 33.8705 29.3968 33.905 29.4299 33.972C29.4631 34.0397 29.4609 34.0404 29.4933 34.1081C29.5265 34.1758 29.4563 34.2096 29.4888 34.2765C29.522 34.3442 29.6087 34.3021 29.6411 34.369C29.6743 34.4367 29.6781 34.4345 29.7105 34.5021C29.7437 34.5698 29.792 34.5458 29.8252 34.6134C29.8584 34.6811 29.7573 34.73 29.7897 34.7969C29.8222 34.8646 29.9149 34.8195 29.9481 34.8864C29.9806 34.9541 29.9444 34.9714 29.9776 35.0391C30.0107 35.1067 29.9466 35.1376 29.9791 35.2045C30.0123 35.2722 29.9602 35.297 29.9934 35.3639C30.0258 35.4316 30.0394 35.4248 30.0726 35.4918C30.1058 35.5594 30.1661 35.5294 30.1993 35.597C30.2325 35.6647 30.1435 35.7076 30.1767 35.7745C30.2099 35.8422 30.2431 35.8257 30.2763 35.8933C30.3094 35.961 30.3728 35.9302 30.4052 35.9971C30.4384 36.0648 30.4927 36.0377 30.5252 36.1054C30.5584 36.1731 30.5237 36.1896 30.5568 36.2566C30.59 36.3235 30.5403 36.3475 30.5727 36.4152C30.6059 36.4829 30.5267 36.5205 30.5599 36.5882C30.5931 36.6559 30.7567 36.5762 30.7899 36.6431C30.8231 36.7108 30.7635 36.7393 30.796 36.807C30.8291 36.8747 30.7213 36.9266 30.7545 36.9943C30.7877 37.0619 30.934 36.9905 30.9672 37.0582C31.0004 37.1259 30.9566 37.1469 30.989 37.2138C31.0222 37.2815 31.029 37.2778 31.0622 37.3454C31.0954 37.4131 31.0139 37.4522 31.0471 37.5192C31.0803 37.5868 31.1067 37.5733 31.1399 37.641C31.1731 37.7087 31.1791 37.7049 31.2123 37.7726C31.2455 37.8403 31.3451 37.7914 31.3783 37.8591C31.4114 37.9267 31.413 37.926 31.4454 37.9929C31.4786 38.0606 31.462 38.0681 31.4952 38.1358C31.5284 38.2035 31.376 38.2764 31.4092 38.3441C31.4424 38.4118 31.5148 38.3764 31.5472 38.4441C31.5804 38.5118 31.5042 38.5486 31.5367 38.6163C31.5691 38.684 31.7365 38.6028 31.769 38.6705C31.7939 38.7224 31.425 38.8908 31.0584 39.0683C30.6919 39.2458 30.3177 39.4368 30.2928 39.3849V39.3834Z" fill="#E74F3D"></path><path d="M34.567 25.3352C34.5994 25.4022 34.4931 25.4541 34.5255 25.521C34.5579 25.5879 34.4863 25.6225 34.5187 25.6902C34.5512 25.7571 34.7299 25.6706 34.7624 25.7383C34.7948 25.8052 34.6945 25.8541 34.7269 25.921C34.7593 25.988 34.8695 25.9353 34.9019 26.0023C34.9343 26.0692 34.8001 26.1346 34.8325 26.2015C34.8649 26.2685 35.006 26.2 35.0384 26.2677C35.0709 26.3346 35.0671 26.3369 35.1003 26.4038C35.1327 26.4708 34.9924 26.5384 35.0256 26.6061C35.058 26.673 35.1991 26.6046 35.2323 26.6723C35.2655 26.74 35.1802 26.7806 35.2127 26.8475C35.2451 26.9144 35.3168 26.8798 35.3492 26.9468C35.3816 27.0137 35.3273 27.04 35.3598 27.1077C35.3922 27.1746 35.31 27.2145 35.3424 27.2822C35.3748 27.3498 35.3499 27.3611 35.3824 27.4288C35.4148 27.4957 35.4699 27.4694 35.5023 27.5363C35.5347 27.6033 35.4842 27.6281 35.5166 27.695C35.5491 27.7619 35.5928 27.7409 35.626 27.8078C35.6584 27.8747 35.6969 27.8567 35.7294 27.9236C35.7618 27.9905 35.8334 27.956 35.8666 28.0229C35.8991 28.0898 35.8787 28.0996 35.9119 28.1665C35.9443 28.2334 35.8478 28.2801 35.881 28.3478C35.9134 28.4147 35.9126 28.4154 35.9458 28.4824C35.9783 28.5493 35.9255 28.5749 35.9579 28.6418C35.9903 28.7087 36.1427 28.635 36.1759 28.7019C36.2091 28.7689 36.1774 28.7839 36.2106 28.8508C36.243 28.9178 36.3154 28.8832 36.3479 28.9501C36.3803 29.017 36.3584 29.0276 36.3916 29.0945C36.4241 29.1614 36.3011 29.2208 36.3343 29.2878C36.3675 29.3547 36.4565 29.3118 36.4889 29.3787C36.5214 29.4457 36.5568 29.4284 36.59 29.4961C36.6224 29.563 36.5877 29.5803 36.6202 29.6472C36.6526 29.7141 36.6669 29.7074 36.7001 29.7743C36.7333 29.8412 36.5862 29.9127 36.6187 29.9796C36.6511 30.0465 36.6865 30.0292 36.7197 30.0969C36.7522 30.1638 36.8057 30.1383 36.8382 30.2052C36.8706 30.2721 36.8759 30.2699 36.9091 30.3368C36.9415 30.4037 36.949 30.4 36.9815 30.4676C37.0139 30.5346 37.0539 30.5158 37.0863 30.5827C37.1187 30.6496 37.1052 30.6564 37.1376 30.7233C37.17 30.7902 37.1821 30.7842 37.2153 30.8519C37.2477 30.9188 37.1791 30.9527 37.2115 31.0196C37.2331 31.0642 37.255 31.1088 37.2771 31.1535C37.3096 31.2204 37.4288 31.1632 37.4612 31.2302C37.4936 31.2971 37.4695 31.3091 37.5019 31.3761C37.5344 31.443 37.431 31.4934 37.4635 31.5603C37.4959 31.6272 37.511 31.6205 37.5434 31.6874C37.5758 31.7543 37.5706 31.7573 37.603 31.8242C37.6354 31.8912 37.6814 31.8694 37.7139 31.9363C37.7463 32.0032 37.6807 32.0348 37.7139 32.1025C37.7463 32.1694 37.6988 32.1927 37.7312 32.2597C37.7637 32.3266 37.7908 32.3138 37.8232 32.3807C37.8557 32.4477 37.9281 32.4131 37.9605 32.48C37.993 32.5469 38.045 32.5221 38.0774 32.589C38.1099 32.656 38.1295 32.6469 38.1619 32.7139C38.1944 32.7808 38.0955 32.8289 38.1287 32.8958C38.1619 32.9628 38.1815 32.953 38.214 33.0207C38.2464 33.0876 38.2343 33.0936 38.2668 33.1613C38.2992 33.2282 38.2494 33.2523 38.2826 33.3192C38.315 33.3861 38.3437 33.3726 38.3769 33.4395C38.4093 33.5065 38.401 33.511 38.4335 33.5779C38.4659 33.6448 38.5421 33.608 38.5745 33.6757C38.607 33.7426 38.4855 33.8013 38.5187 33.8689C38.5511 33.9359 38.6183 33.9035 38.6507 33.9705C38.6831 34.0374 38.613 34.072 38.6454 34.1389C38.6779 34.2058 38.6824 34.2036 38.7156 34.2713C38.748 34.3382 38.9328 34.2487 38.966 34.3164C38.9984 34.3833 38.8498 34.4555 38.8823 34.5224C38.9147 34.5893 38.9864 34.5555 39.0188 34.6224C39.0512 34.6894 39.0723 34.6796 39.1048 34.7465C39.1372 34.8134 39.1259 34.8195 39.1583 34.8864C39.1908 34.9533 39.1176 34.9887 39.1508 35.0563C39.1832 35.1233 39.2232 35.1045 39.2564 35.1714C39.2896 35.2383 39.2752 35.2451 39.3084 35.3128C39.3333 35.3639 39.0497 35.494 38.6831 35.6715C38.3166 35.8489 38.0345 35.9933 38.0096 35.9414C37.9771 35.8745 37.947 35.8888 37.9145 35.8219C37.8821 35.7549 37.8481 35.7715 37.815 35.7046C37.7825 35.6376 37.7493 35.6534 37.7169 35.5865C37.6845 35.5196 37.778 35.4737 37.7456 35.4068C37.7131 35.3398 37.7335 35.3301 37.7011 35.2624C37.6686 35.1955 37.652 35.203 37.6196 35.1361C37.5872 35.0691 37.5359 35.0939 37.5034 35.027C37.471 34.9601 37.5155 34.9383 37.4831 34.8713C37.4506 34.8044 37.4536 34.8029 37.4212 34.736C37.3888 34.6691 37.2787 34.7217 37.2462 34.6548C37.2138 34.5878 37.2259 34.5818 37.1934 34.5149C37.161 34.448 37.3134 34.3743 37.2809 34.3066C37.2485 34.2389 37.1338 34.2946 37.1014 34.2276C37.069 34.1607 37.1082 34.1412 37.0758 34.0742C37.0433 34.0073 36.983 34.0366 36.9505 33.9689C36.9181 33.902 37.0147 33.8546 36.9822 33.7877C36.9498 33.7208 36.9 33.7449 36.8668 33.6779C36.8344 33.611 36.9008 33.5787 36.8683 33.5117C36.8359 33.4448 36.8057 33.4591 36.7733 33.3922C36.7409 33.3252 36.8102 33.2914 36.7778 33.2245C36.7454 33.1575 36.7031 33.1778 36.6707 33.1109C36.6383 33.044 36.5802 33.0718 36.547 33.0049C36.5146 32.938 36.4323 32.9778 36.3999 32.9101C36.3675 32.8432 36.5221 32.768 36.4889 32.7011C36.4565 32.6341 36.4082 32.6575 36.3758 32.5905C36.3433 32.5236 36.3169 32.5364 36.2838 32.4695C36.2513 32.4025 36.3003 32.3785 36.2672 32.3115C36.2347 32.2446 36.1404 32.2897 36.108 32.2228C36.0756 32.1559 36.108 32.1401 36.0756 32.0724C36.0431 32.0055 36.0152 32.0183 35.9828 31.9513C35.9504 31.8844 35.9888 31.8656 35.9564 31.7979C35.924 31.731 35.8727 31.7558 35.8402 31.6889C35.8078 31.622 35.841 31.6054 35.8086 31.5385C35.7761 31.4716 35.7784 31.4701 35.7452 31.4031C35.712 31.3362 35.6517 31.3655 35.6185 31.2986C35.586 31.2317 35.626 31.2121 35.5936 31.1452C35.5611 31.0783 35.5687 31.0745 35.5363 31.0068C35.5038 30.9391 35.4495 30.9655 35.4171 30.8985C35.3846 30.8316 35.4563 30.797 35.4239 30.7293C35.3914 30.6624 35.3937 30.6609 35.3605 30.594C35.3273 30.527 35.3975 30.4932 35.365 30.4263C35.3326 30.3593 35.2451 30.4015 35.2127 30.3345C35.1802 30.2676 35.1757 30.2691 35.1433 30.2022C35.1108 30.1353 35.0618 30.1586 35.0294 30.0916C34.9969 30.0247 35.0973 29.9758 35.0648 29.9089C35.0324 29.842 34.9396 29.8871 34.9072 29.8194C34.8747 29.7525 34.911 29.7344 34.8785 29.6675C34.8461 29.6006 34.9094 29.5697 34.877 29.5028C34.8446 29.4359 34.8959 29.4111 34.8634 29.3434C34.831 29.2765 34.8174 29.2832 34.785 29.2156C34.7526 29.1486 34.6915 29.178 34.6583 29.111C34.6258 29.0441 34.7141 29.0012 34.6817 28.9343C34.6492 28.8674 34.6153 28.8832 34.5828 28.8162C34.5504 28.7493 34.4863 28.7801 34.4539 28.7132C34.4214 28.6463 34.3664 28.6726 34.3339 28.6057C34.3015 28.5388 34.3354 28.5222 34.303 28.4553C34.2706 28.3884 34.3196 28.3643 34.2872 28.2974C34.2547 28.2304 34.3332 28.1921 34.3007 28.1252C34.2683 28.0582 34.1039 28.1379 34.0707 28.0703C34.0382 28.0033 34.0971 27.9748 34.0646 27.9071C34.0322 27.8401 34.1393 27.7883 34.1069 27.7206C34.0745 27.6537 33.9274 27.7243 33.8942 27.6574C33.8617 27.5905 33.9055 27.5694 33.8723 27.5018C33.8399 27.4348 33.8323 27.4378 33.7999 27.3709C33.7675 27.304 33.8482 27.2649 33.8157 27.1972C33.7833 27.1303 33.7561 27.143 33.7237 27.0761C33.6913 27.0092 33.6845 27.0122 33.6521 26.9453C33.6196 26.8783 33.5193 26.9265 33.4861 26.8595C33.4537 26.7926 33.4514 26.7934 33.419 26.7264C33.3865 26.6595 33.4024 26.6512 33.3699 26.5843C33.3375 26.5174 33.4891 26.4437 33.4567 26.3768C33.4243 26.3098 33.3511 26.3444 33.3187 26.2775C33.2862 26.2106 33.3624 26.1737 33.3292 26.106C33.296 26.0384 33.1301 26.1196 33.0969 26.0526C33.072 26.0015 33.4409 25.8323 33.8074 25.6548C34.174 25.4774 34.5481 25.2864 34.573 25.3382L34.567 25.3352Z" fill="#E74F3D"></path><path d="M38.6719 37.0085C38.5935 36.9792 38.6349 36.8686 38.5572 36.8401C38.4796 36.8107 38.5082 36.7363 38.4305 36.7077C38.3536 36.6791 38.2827 36.8619 38.205 36.8318C38.1281 36.8017 38.1695 36.6979 38.0934 36.6671C38.0172 36.637 37.9704 36.7498 37.895 36.7182C37.8196 36.6866 37.8761 36.549 37.8015 36.5182C37.726 36.4874 37.6664 36.631 37.5903 36.6002C37.5148 36.5686 37.5171 36.5648 37.4432 36.5332C37.3685 36.5017 37.4296 36.3588 37.3557 36.3272C37.2818 36.2956 37.2199 36.4392 37.1467 36.4084C37.0736 36.3768 37.1105 36.2911 37.0374 36.2595C36.9642 36.2279 36.9325 36.3009 36.8601 36.2693C36.7877 36.2385 36.8118 36.1828 36.7394 36.152C36.667 36.1211 36.7032 36.0369 36.6308 36.0061C36.5584 35.9753 36.5697 35.9504 36.4973 35.9204C36.4256 35.891 36.4023 35.9467 36.3306 35.9174C36.2589 35.888 36.2801 35.8346 36.2084 35.8068C36.1367 35.779 36.1186 35.8241 36.0477 35.7955C35.9761 35.7677 35.961 35.8068 35.8901 35.7797C35.8192 35.7542 35.7913 35.8286 35.7211 35.8023C35.651 35.7767 35.6585 35.7557 35.5884 35.7294C35.5182 35.7038 35.5537 35.6045 35.4828 35.5805C35.4355 35.5644 35.3882 35.5484 35.341 35.5323C35.2701 35.5083 35.2882 35.4526 35.2165 35.4323C35.1449 35.4113 35.0973 35.5737 35.0272 35.5526C34.957 35.5331 34.9669 35.4977 34.8967 35.4797C34.8266 35.4624 34.8062 35.5398 34.7368 35.5226C34.6674 35.5053 34.6727 35.4819 34.6033 35.4646C34.5339 35.4496 34.5626 35.3173 34.4909 35.303C34.42 35.2887 34.4011 35.3864 34.331 35.3722C34.2608 35.3579 34.2541 35.397 34.1847 35.3872C34.1153 35.3774 34.1205 35.3383 34.0504 35.3285C33.9802 35.3188 33.978 35.3323 33.9078 35.3248C33.8377 35.3188 33.8543 35.1571 33.7819 35.1503C33.7095 35.1435 33.7064 35.1826 33.6348 35.1766C33.6174 35.1751 33.6023 35.1766 33.5918 35.1819C33.588 35.1872 33.5858 35.1947 33.5835 35.2022C33.5782 35.2165 33.5744 35.2315 33.5669 35.2308C33.5511 35.2308 33.5518 35.236 33.5367 35.2353C33.5224 35.2353 33.5224 35.2428 33.5118 35.2428C33.502 35.2428 33.5239 35.2872 33.5201 35.2887C33.5171 35.2902 33.5111 35.2834 33.5058 35.2819C33.5043 35.2804 33.5028 35.2804 33.502 35.2819C33.499 35.2879 33.5096 35.2985 33.5081 35.303C33.5066 35.3067 33.4424 35.2609 33.4372 35.2736C33.4349 35.2797 33.4341 35.2827 33.4326 35.2857C33.4281 35.2962 33.4236 35.3067 33.4145 35.3285C33.3829 35.4045 33.5043 35.4556 33.4726 35.5323C33.4402 35.609 33.4153 35.5978 33.3821 35.673C33.3489 35.7482 33.2433 35.7023 33.2109 35.7767C33.1784 35.8519 33.1928 35.8579 33.1596 35.9316C33.1264 36.0053 33.1204 36.0031 33.0872 36.0768C33.054 36.1505 33.0992 36.1715 33.0638 36.2445C33.0283 36.3174 32.9627 36.2866 32.9273 36.3595C32.8926 36.4325 32.845 36.4107 32.8096 36.4821C32.7741 36.5543 32.8013 36.5663 32.7658 36.6385C32.7304 36.7107 32.8021 36.7438 32.7666 36.816C32.7311 36.8874 32.7817 36.9115 32.7462 36.9829C32.7108 37.0544 32.7296 37.0634 32.6942 37.1356C32.6587 37.207 32.5622 37.1612 32.5267 37.2326C32.4913 37.304 32.5109 37.3131 32.4754 37.3845C32.44 37.4559 32.4279 37.4499 32.3925 37.5214C32.357 37.5928 32.3087 37.5695 32.2741 37.6409C32.2386 37.7124 32.2665 37.7252 32.2311 37.7958C32.1964 37.8665 32.1881 37.8628 32.1526 37.9342C32.1179 38.0049 32.1903 38.0395 32.1549 38.1102C32.1202 38.1809 32.0048 38.1267 31.9701 38.1974C31.9354 38.2681 31.9987 38.2974 31.964 38.3689C31.9293 38.4403 31.863 38.4087 31.829 38.4794C31.7951 38.5501 31.7996 38.5524 31.7657 38.6231C31.731 38.6937 31.9075 38.7734 31.8713 38.8426C31.832 38.9103 31.6933 38.8479 31.6555 38.9163C31.6178 38.9848 31.6827 39.0141 31.645 39.0818C31.6073 39.1502 31.6261 39.1577 31.5884 39.2262C31.5499 39.2938 31.5424 39.2908 31.4994 39.3555C31.4572 39.4209 31.3946 39.3946 31.3546 39.4615C31.3342 39.4946 31.3319 39.5149 31.3297 39.5345C31.3289 39.5443 31.3282 39.554 31.3244 39.5661C31.3229 39.5721 31.3206 39.5781 31.3176 39.5849C31.3161 39.5879 31.3154 39.5924 31.3138 39.5961V39.5976C31.3003 39.5924 31.3101 39.5961 31.3071 39.5946L31.3063 39.5954L31.3033 39.5976L31.2965 39.6022C31.2203 39.654 31.2226 39.6548 31.1132 39.6947C31.0287 39.7255 30.8945 39.6668 30.6983 39.5924C30.5022 39.5179 30.3604 39.4721 30.3205 39.3893C30.2699 39.2818 30.2609 39.278 30.2413 39.181L30.2397 39.172V39.1675L30.2382 39.1652C30.2352 39.1637 30.245 39.1682 30.2314 39.1622C30.233 39.157 30.2345 39.1532 30.2352 39.1487C30.236 39.1404 30.2367 39.1329 30.2367 39.1261C30.2367 39.1126 30.236 39.1006 30.2345 39.0885C30.2322 39.0652 30.2299 39.0427 30.2397 39.0021C30.2586 38.9208 30.2307 38.9096 30.2495 38.8276C30.2669 38.7449 30.3529 38.7817 30.3793 38.7043C30.4057 38.6268 30.4245 38.6351 30.4509 38.5576C30.4773 38.4802 30.4623 38.4734 30.4894 38.3974C30.5166 38.3207 30.469 38.2997 30.4954 38.2222C30.5249 38.1463 30.5686 38.1666 30.601 38.0921C30.6237 38.0435 30.6463 37.9949 30.6689 37.9462C30.7014 37.8726 30.5973 37.8244 30.6305 37.7507C30.6629 37.677 30.675 37.683 30.7074 37.6094C30.7398 37.5357 30.8854 37.6041 30.9186 37.5304C30.9518 37.4574 30.8424 37.4063 30.8756 37.3334C30.9088 37.2604 30.9465 37.2785 30.9797 37.2055C31.0129 37.1326 30.9548 37.1055 30.988 37.0333C31.0204 36.9604 31.114 37.0047 31.1471 36.9326C31.1803 36.8604 31.1321 36.837 31.1645 36.7649C31.1969 36.6927 31.2618 36.7235 31.295 36.6513C31.3282 36.5791 31.2988 36.5648 31.3312 36.4934C31.3636 36.4212 31.4323 36.4535 31.4647 36.3813C31.4971 36.3091 31.4564 36.2903 31.4888 36.2182C31.5213 36.146 31.4639 36.1196 31.4956 36.0474C31.5281 35.9753 31.4458 35.9377 31.4783 35.8662C31.51 35.7948 31.6646 35.8662 31.6963 35.794C31.7279 35.7226 31.6797 35.7 31.7114 35.6286C31.743 35.5571 31.7159 35.5444 31.7476 35.4737C31.7792 35.403 31.829 35.4248 31.8607 35.3541C31.8924 35.2834 31.7981 35.2406 31.8283 35.1706C31.8592 35.0999 31.8924 35.115 31.9233 35.0443C31.9535 34.9736 31.9271 34.9616 31.9557 34.8916C31.9852 34.8217 32.0251 34.8382 32.0546 34.7683C32.0621 34.7502 32.0636 34.7375 32.0644 34.7217C32.0696 34.6954 32.0719 34.6728 32.0719 34.6525C32.0719 34.6104 32.0772 34.5705 32.1096 34.5013C32.1745 34.3637 32.2054 34.3848 32.2688 34.2509C32.3012 34.1847 32.3148 34.1479 32.3351 34.1201C32.3563 34.093 32.3766 34.0659 32.4226 34.017C32.4468 33.9915 32.4641 33.9712 32.4754 33.9509C32.5132 33.8952 32.5139 33.8441 32.6082 33.7884C32.6723 33.7531 32.7108 33.7501 32.7493 33.7471C32.7877 33.7448 32.8247 33.7426 32.8933 33.7253C32.9273 33.7162 32.9544 33.7125 32.9778 33.7147C33.0012 33.7155 33.0193 33.7162 33.0381 33.717C33.0751 33.7185 33.1121 33.72 33.1852 33.7193C33.3301 33.7178 33.3218 33.6583 33.4726 33.6561C33.548 33.6546 33.5858 33.6741 33.622 33.6937C33.6401 33.7035 33.6582 33.7132 33.68 33.72C33.6981 33.7275 33.711 33.735 33.7343 33.7366C33.7932 33.7426 33.8518 33.7486 33.9101 33.7546C33.9983 33.7629 33.9901 33.8396 34.0775 33.8478C34.1643 33.8569 34.1764 33.7636 34.2639 33.7757C34.3514 33.7884 34.3521 33.7839 34.4396 33.7967C34.5271 33.8095 34.5362 33.7554 34.6237 33.7726C34.7104 33.7899 34.6893 33.8997 34.7753 33.9163C34.8605 33.9336 34.8824 33.8321 34.9691 33.8509C35.0543 33.8719 35.0453 33.911 35.1298 33.9321C35.215 33.9531 35.1969 34.0216 35.2814 34.0426C35.3651 34.0637 35.3493 34.1208 35.4315 34.1441C35.5137 34.1682 35.5175 34.1539 35.5997 34.178C35.6819 34.202 35.7023 34.1374 35.783 34.1644C35.8637 34.1915 35.8328 34.2848 35.9127 34.3111C35.9927 34.3382 36.0055 34.3021 36.0847 34.3299C36.1631 34.3585 36.1873 34.2923 36.2665 34.3209C36.3457 34.3494 36.3668 34.293 36.446 34.3224C36.5245 34.3524 36.5101 34.3878 36.5878 34.4179C36.6655 34.4479 36.6451 34.4991 36.7221 34.5292C36.7998 34.5592 36.7658 34.6405 36.8412 34.6713C36.9167 34.7021 36.9861 34.5337 37.0623 34.5653C37.1377 34.5968 37.1135 34.657 37.1875 34.6886C37.2621 34.7202 37.2154 34.83 37.2893 34.8615C37.3632 34.8931 37.4273 34.7427 37.502 34.7743C37.5759 34.8059 37.5563 34.8503 37.6295 34.8818C37.7026 34.9134 37.7057 34.9059 37.7788 34.9375C37.852 34.9691 37.8165 35.051 37.889 35.0819C37.9614 35.1127 37.9734 35.0856 38.0458 35.1157C38.1183 35.1466 38.1213 35.1405 38.1937 35.1706C38.2661 35.2007 38.3083 35.0977 38.3807 35.1278C38.429 35.1468 38.477 35.1661 38.5248 35.1857C38.5965 35.2157 38.5897 35.2308 38.6613 35.2594C38.733 35.2879 38.6704 35.4443 38.7428 35.4729C38.8152 35.5015 38.8439 35.427 38.9155 35.4541C38.9872 35.4812 38.957 35.5602 39.0294 35.5865C39.1018 35.6135 39.166 35.4398 39.2369 35.4669C39.2912 35.4872 39.1456 35.8647 39.0068 36.2467C38.868 36.6287 38.7353 37.0266 38.6749 37.004L38.6719 37.0085Z" fill="#E74F3D"></path><path d="M19.8132 39.8496C19.7604 39.7932 19.8909 39.7458 19.8652 39.6781C19.8411 39.6105 19.9226 39.5796 19.8984 39.512C19.8735 39.4435 19.6722 39.5225 19.6465 39.4563C19.6209 39.3901 19.734 39.345 19.7076 39.2781C19.682 39.2112 19.5605 39.2615 19.5334 39.1961C19.5062 39.1307 19.6548 39.0675 19.6269 39.0013C19.599 38.9352 19.4459 39.0029 19.418 38.9382C19.3893 38.8735 19.3931 38.8713 19.3644 38.8066C19.3357 38.7419 19.4874 38.6712 19.4579 38.6058C19.427 38.5404 19.2762 38.6126 19.246 38.5479C19.2158 38.4832 19.3056 38.4389 19.2746 38.3742C19.2422 38.3088 19.1675 38.3464 19.1359 38.2817C19.1042 38.2163 19.1615 38.1877 19.1291 38.1223C19.0959 38.0561 19.1819 38.0117 19.1487 37.9455C19.1147 37.8794 19.1419 37.8658 19.1079 37.7996C19.0732 37.7327 19.0167 37.7628 18.9827 37.6959C18.948 37.6289 19.0008 37.6019 18.9661 37.5342C18.9314 37.4665 18.8862 37.4898 18.8515 37.4221C18.8168 37.3537 18.7776 37.3755 18.7421 37.3063C18.7067 37.2372 18.6335 37.2755 18.5988 37.2056C18.5641 37.1364 18.5845 37.1259 18.5498 37.0552C18.5151 36.9845 18.6139 36.9341 18.5792 36.8642C18.5445 36.7935 18.5452 36.7935 18.5113 36.722C18.4774 36.6506 18.5317 36.6243 18.4985 36.5528C18.4645 36.4814 18.3076 36.5558 18.2752 36.4829C18.242 36.41 18.2737 36.3949 18.2413 36.3227C18.2088 36.2498 18.1327 36.2844 18.101 36.2099C18.0693 36.1355 18.0919 36.1257 18.0602 36.052C18.0286 35.9776 18.1568 35.9242 18.1259 35.8505C18.0964 35.7768 18.0029 35.8151 17.9727 35.7407C17.9577 35.7031 17.9411 35.6888 17.9245 35.6737C17.9207 35.67 17.9162 35.6662 17.9116 35.6625C17.9079 35.6595 17.9026 35.6512 17.9018 35.6549C17.8981 35.6572 17.8973 35.6602 17.8973 35.6602C17.8973 35.6587 17.932 35.6384 17.9298 35.6324C17.9275 35.6271 17.9147 35.6377 17.9132 35.6339C17.9132 35.6331 17.9207 35.6241 17.932 35.6106C17.9463 35.5933 17.9599 35.5775 17.9743 35.5602C18.0044 35.5226 18.0338 35.482 18.0301 35.473C18.0233 35.4549 17.9954 35.4948 17.9893 35.482C17.9863 35.4767 17.9795 35.4827 17.972 35.4925C17.9584 35.5083 17.9426 35.5346 17.9373 35.5316C17.9282 35.5271 17.9245 35.5354 17.9154 35.5369C17.9064 35.5399 17.9041 35.5512 17.8966 35.5542C17.8883 35.5579 17.8822 35.6083 17.8785 35.6098C17.8739 35.6121 17.8739 35.5948 17.8679 35.5978C17.8611 35.6 17.8656 35.6121 17.8581 35.6151C17.8558 35.6158 17.8528 35.6121 17.8483 35.6061C17.846 35.6023 17.8438 35.5985 17.8423 35.5955C17.8423 35.591 17.8302 35.5903 17.8249 35.5865C17.7978 35.576 17.7706 35.5647 17.7291 35.5797C17.6461 35.6106 17.6461 35.6061 17.5632 35.6316C17.4802 35.6549 17.5172 35.7828 17.4319 35.8061C17.3467 35.8294 17.3399 35.8053 17.2562 35.8234C17.1725 35.8422 17.146 35.7294 17.0638 35.7474C16.9816 35.7655 16.9846 35.7828 16.9032 35.7986C16.8217 35.8129 16.821 35.8061 16.7395 35.8204C16.658 35.8347 16.6671 35.8843 16.5849 35.8978C16.5034 35.9084 16.4936 35.8354 16.4136 35.8444C16.3337 35.8535 16.3269 35.8016 16.2469 35.8106C16.1677 35.8196 16.1715 35.8482 16.0931 35.8557C16.0154 35.8625 16.0244 35.94 15.946 35.9467C15.8683 35.9535 15.8728 36.0091 15.7966 36.0144C15.7204 36.0197 15.7227 36.0407 15.6458 36.046C15.5696 36.0512 15.5583 35.9475 15.4813 35.9527C15.4067 35.9588 15.4089 35.9798 15.335 35.9851C15.2603 35.9911 15.2588 35.9776 15.1849 35.9836C15.1102 35.9888 15.1057 35.9384 15.0325 35.9452C14.9601 35.952 14.9631 35.9813 14.8907 35.9881C14.8183 35.9948 14.8161 35.9858 14.7459 35.9948C14.675 36.0031 14.6871 36.0798 14.6162 36.0881C14.546 36.0964 14.5249 35.9745 14.4548 35.9843C14.3854 35.9956 14.3982 36.0618 14.3295 36.0723C14.2609 36.0828 14.2466 36.0144 14.1772 36.0257C14.1093 36.0385 14.1108 36.0445 14.0437 36.0588C13.9765 36.0731 14.0218 36.2505 13.9569 36.2611C13.8906 36.2693 13.8521 36.1325 13.7865 36.1475C13.7208 36.1625 13.742 36.2265 13.6771 36.2408C13.613 36.2558 13.6167 36.2701 13.5556 36.2896C13.4938 36.3077 13.49 36.2979 13.4274 36.3167C13.3648 36.3348 13.3384 36.2746 13.2743 36.2941C13.2441 36.3069 13.2328 36.3205 13.2207 36.3348C13.2147 36.3415 13.2094 36.349 13.2011 36.3551C13.1974 36.3581 13.1928 36.3618 13.1868 36.3648C13.1838 36.3663 13.1815 36.3686 13.1785 36.3701C13.171 36.3626 13.1695 36.3678 13.1634 36.3663C13.1265 36.3663 13.1068 36.3633 13.0865 36.3611C13.0812 36.3611 13.0767 36.3603 13.0714 36.3596L13.0646 36.3618H13.0631L13.0623 36.3626C13.0458 36.331 13.0578 36.3536 13.054 36.3468L13.0533 36.346L13.0465 36.3415C13.0276 36.3287 13.0058 36.3144 12.9756 36.2956C12.8813 36.234 12.8232 36.1227 12.729 35.9565C12.6347 35.7903 12.563 35.6835 12.5721 35.5685C12.5758 35.5324 12.5788 35.5045 12.5811 35.4797V35.4707L12.5819 35.4684C12.5894 35.4827 12.5713 35.4489 12.5736 35.4527L12.5751 35.4512L12.5819 35.4451C12.5856 35.4399 12.5887 35.4339 12.5917 35.4278C12.6037 35.4053 12.6166 35.382 12.6467 35.3466L12.652 35.3399L12.6543 35.3368L12.6558 35.3353C12.655 35.3331 12.658 35.3399 12.6535 35.3308H12.6543C12.6588 35.3278 12.6626 35.3256 12.6656 35.3233C12.6724 35.3181 12.6784 35.3135 12.6837 35.3083C12.6943 35.2985 12.7018 35.2895 12.7101 35.2804C12.7259 35.2624 12.741 35.2444 12.7795 35.2218C12.8572 35.1819 12.8451 35.1556 12.9243 35.1158C13.0035 35.0759 13.0344 35.1556 13.1129 35.118C13.1913 35.0789 13.1981 35.1015 13.2766 35.0684C13.3558 35.0368 13.3512 35.0218 13.4304 34.9902C13.5104 34.9593 13.4968 34.909 13.5768 34.8826C13.6582 34.8578 13.6695 34.9014 13.7503 34.8789C13.8317 34.8563 13.8325 34.8586 13.9132 34.8375C13.9939 34.8195 13.9713 34.7127 14.0535 34.6939C14.1349 34.6751 14.1372 34.6871 14.2194 34.6691C14.3009 34.6518 14.3258 34.8052 14.405 34.7909C14.4842 34.7766 14.4668 34.6616 14.5468 34.6465C14.6267 34.6315 14.632 34.6728 14.7105 34.66C14.7889 34.648 14.7806 34.5864 14.8591 34.5736C14.9375 34.5615 14.9503 34.66 15.0265 34.6495C15.1027 34.639 15.0974 34.5871 15.1736 34.5758C15.2505 34.5645 15.2581 34.6345 15.3343 34.624C15.4089 34.6134 15.4059 34.5818 15.4806 34.5713C15.5553 34.5608 15.5636 34.6352 15.6382 34.6247C15.7137 34.6149 15.7069 34.5698 15.78 34.5585C15.8532 34.548 15.8457 34.4856 15.9181 34.4743C15.9905 34.463 15.9799 34.375 16.0493 34.3623C16.1187 34.3495 16.1421 34.5179 16.213 34.5059C16.2831 34.4931 16.2764 34.442 16.345 34.4284C16.4136 34.4164 16.4084 34.3871 16.4762 34.375C16.5441 34.363 16.5539 34.4164 16.6226 34.4036C16.6905 34.3901 16.6678 34.2871 16.7327 34.272C16.7976 34.257 16.8059 34.2923 16.8707 34.278C16.9364 34.2637 16.9281 34.2329 16.9892 34.2149C17.051 34.1968 17.0631 34.2382 17.1257 34.2201C17.1875 34.2006 17.1725 34.1502 17.2305 34.1269C17.2599 34.1156 17.2773 34.1194 17.2954 34.1224C17.2999 34.1224 17.3037 34.1239 17.3097 34.1246C17.3195 34.1231 17.3293 34.1216 17.3399 34.1201C17.3618 34.1156 17.3867 34.1088 17.4199 34.0968C17.4855 34.075 17.5202 34.0547 17.5541 34.0404C17.5881 34.0254 17.622 34.0096 17.6891 33.9787C17.8159 33.9441 17.8128 33.8727 17.9456 33.8389C18.0783 33.805 18.0731 33.8532 18.2013 33.8193C18.2654 33.8028 18.2986 33.7937 18.3227 33.8013C18.3491 33.805 18.3755 33.8095 18.4283 33.8178C18.4826 33.8276 18.5173 33.8208 18.5528 33.8163C18.5875 33.8118 18.626 33.8073 18.6855 33.8359C18.7632 33.8727 18.7693 33.9208 18.7949 33.966C18.8055 33.99 18.8213 34.0148 18.8522 34.0389C18.896 34.0757 18.9156 34.0976 18.9352 34.1194C18.9548 34.1412 18.9744 34.163 19.0114 34.2111C19.0204 34.2239 19.028 34.2344 19.0333 34.2472C19.037 34.2615 19.0401 34.275 19.0423 34.2878C19.0461 34.3134 19.0461 34.3367 19.0461 34.36C19.0461 34.4066 19.0453 34.4517 19.0725 34.5119C19.126 34.6315 19.2037 34.5676 19.2626 34.6969C19.292 34.7608 19.3071 34.7924 19.3229 34.8232C19.3388 34.8541 19.3538 34.8864 19.3802 34.9548C19.3938 34.9887 19.4089 35.015 19.4225 35.0353C19.4263 35.0406 19.4293 35.0451 19.4323 35.0496L19.4391 35.0548C19.4444 35.0579 19.4489 35.0609 19.4534 35.0639C19.473 35.0752 19.4926 35.0864 19.5062 35.1195C19.5334 35.1849 19.4278 35.2286 19.4549 35.2947C19.4828 35.3609 19.5801 35.3196 19.6088 35.385C19.6375 35.4497 19.5997 35.4662 19.6284 35.5316C19.6571 35.597 19.5922 35.6264 19.6216 35.691C19.6518 35.7557 19.5982 35.7805 19.6292 35.846C19.6601 35.9114 19.6744 35.9046 19.7068 35.9693C19.7393 36.034 19.8019 36.0039 19.8351 36.0678C19.8675 36.1325 19.777 36.1776 19.8109 36.2423C19.8449 36.3069 19.8796 36.2896 19.9135 36.3543C19.9475 36.419 20.0131 36.3859 20.0478 36.4506C20.0832 36.5152 20.1391 36.4867 20.1745 36.5513C20.2092 36.616 20.1745 36.6348 20.2115 36.701C20.2477 36.7664 20.1971 36.7935 20.2333 36.8596C20.2695 36.9258 20.1896 36.9694 20.2258 37.0356C20.2628 37.1025 20.4317 37.0131 20.4694 37.08C20.5064 37.1477 20.4453 37.1808 20.4823 37.2484C20.5192 37.3169 20.4076 37.3748 20.4438 37.4432C20.48 37.5124 20.6339 37.4342 20.6708 37.5041C20.7078 37.5741 20.6618 37.5974 20.698 37.6665C20.7342 37.7372 20.7417 37.7342 20.7772 37.8049C20.8134 37.8764 20.7266 37.9177 20.7621 37.9884C20.7968 38.0598 20.8255 38.0471 20.8594 38.1185C20.8941 38.1907 20.9009 38.1877 20.9348 38.2591C20.9688 38.3313 21.0774 38.2832 21.1106 38.3569C21.1332 38.4055 21.1558 38.4544 21.1785 38.5035C21.2116 38.5772 21.1935 38.5847 21.2245 38.6592C21.2554 38.7336 21.0857 38.8021 21.1166 38.875C21.1468 38.9487 21.2298 38.9164 21.2584 38.9908C21.2871 39.0653 21.2011 39.0976 21.2298 39.172C21.2569 39.2465 21.456 39.1736 21.4568 39.2593C21.4575 39.2751 21.4327 39.2961 21.3897 39.3194C21.3783 39.3247 21.3663 39.3315 21.3535 39.3375C21.3399 39.3435 21.3248 39.3503 21.309 39.3578C21.2795 39.3706 21.2456 39.3849 21.2086 39.3992C21.06 39.4578 20.8586 39.527 20.658 39.5984C20.4574 39.6699 20.2537 39.7443 20.0983 39.7947C20.0591 39.8075 20.0236 39.818 19.9912 39.827C19.9739 39.8316 19.958 39.8361 19.9422 39.8406C19.9279 39.8443 19.9143 39.8473 19.9015 39.8504C19.8517 39.8609 19.8185 39.8624 19.8094 39.8511L19.8132 39.8496Z" fill="#E74F3D"></path><path d="M18.6576 26.9814C18.5535 26.8881 18.6297 26.8039 18.5263 26.7114C18.4245 26.6159 18.4773 26.5602 18.3762 26.4647C18.2752 26.3707 18.1432 26.5038 18.0421 26.4046C17.9418 26.3046 18.018 26.2309 17.9207 26.1278C17.8241 26.0256 17.7374 26.106 17.6408 26.0008C17.545 25.8932 17.6529 25.7985 17.5594 25.6932C17.4681 25.5857 17.3527 25.6812 17.2607 25.5706C17.1679 25.4601 17.1739 25.4548 17.0842 25.342C16.9951 25.2277 17.1158 25.1382 17.0329 25.0224C16.9506 24.9058 16.8239 24.9946 16.744 24.8728C16.664 24.7517 16.7379 24.7028 16.661 24.5817C16.5863 24.4592 16.5207 24.499 16.4453 24.3749C16.3729 24.2493 16.4249 24.22 16.354 24.0952C16.2831 23.9696 16.3646 23.9275 16.2989 23.8019C16.2333 23.6756 16.2582 23.6635 16.1979 23.5365C16.139 23.4086 16.0825 23.4342 16.0266 23.3041C15.9708 23.174 16.0206 23.1529 15.9648 23.0236C15.9135 22.8935 15.8698 22.9108 15.8185 22.7799C15.7664 22.6491 15.731 22.6634 15.6827 22.531C15.6359 22.3987 15.5612 22.4265 15.5167 22.2889C15.473 22.152 15.4903 22.1453 15.4511 22.0091C15.4111 21.873 15.5077 21.8445 15.4715 21.7098C15.4479 21.6201 15.4242 21.5304 15.4006 21.4406C15.3674 21.306 15.4217 21.2925 15.3893 21.1586C15.3591 21.0248 15.1999 21.0601 15.1698 20.9248C15.1404 20.7886 15.1743 20.7819 15.1456 20.6465C15.1177 20.5112 15.0438 20.5254 15.0174 20.3886C14.9918 20.2525 15.0151 20.248 14.9925 20.1118C14.9699 19.975 15.0981 19.9547 15.0778 19.8186C15.0574 19.6825 14.9623 19.6967 14.9427 19.5599C14.9246 19.423 14.8869 19.4275 14.8696 19.2899C14.8537 19.1523 14.8914 19.1478 14.8756 19.0102C14.8605 18.8725 14.8469 18.8733 14.8334 18.7349C14.8198 18.5966 14.9782 18.583 14.9676 18.4454C14.9571 18.3078 14.9194 18.3101 14.9126 18.1709C14.9058 18.0318 14.8477 18.0348 14.8447 17.8934C14.8417 17.7521 14.8334 17.7536 14.8341 17.6099C14.8356 17.4671 14.8236 17.4671 14.8303 17.3242C14.8356 17.1821 14.7934 17.1798 14.7994 17.0369C14.8039 16.894 14.8236 16.894 14.8349 16.7512C14.8477 16.6075 14.8334 16.606 14.8484 16.4624C14.8681 16.318 14.942 16.3278 14.9616 16.1849C14.9812 16.042 14.982 16.042 15.0099 15.8999C15.0378 15.7578 14.9126 15.7322 14.9427 15.5878C14.9789 15.4442 15.0038 15.4502 15.0423 15.3073C15.0793 15.1644 15.1886 15.1953 15.2324 15.0569C15.2784 14.9185 15.2603 14.9125 15.3101 14.7757C15.3629 14.6395 15.3689 14.6418 15.4217 14.5057C15.4745 14.3696 15.4353 14.3538 15.4941 14.2192C15.556 14.0868 15.614 14.1124 15.6812 13.9853C15.7476 13.8567 15.7921 13.8793 15.8584 13.7522C15.9278 13.6273 15.9052 13.6146 15.9769 13.4905C16.0493 13.3672 15.9844 13.3281 16.0628 13.2085C16.1413 13.0882 16.096 13.0596 16.1752 12.9393C16.2582 12.8227 16.2416 12.8114 16.3253 12.6956C16.4083 12.5791 16.4905 12.6385 16.5765 12.5272C16.6625 12.4159 16.6467 12.4038 16.7327 12.2926C16.8217 12.185 16.8315 12.1933 16.9212 12.0858C17.0102 11.9782 17.0479 12.0098 17.1392 11.9068C17.2297 11.803 17.2094 11.7849 17.3036 11.6842C17.3987 11.5842 17.4062 11.5917 17.502 11.4932C17.5971 11.3969 17.5458 11.3435 17.6393 11.251C17.7306 11.1608 17.8158 11.2382 17.9093 11.1435C18.0029 11.0487 17.9576 11.0066 18.0527 10.9119C18.15 10.8164 18.196 10.86 18.2933 10.7637C18.3913 10.6682 18.3868 10.6652 18.4871 10.5697C18.5867 10.4742 18.472 10.3614 18.5776 10.2674C18.6825 10.1734 18.773 10.2659 18.8786 10.1727C18.985 10.0802 18.948 10.0373 19.0589 9.94631C19.0724 9.93503 19.0853 9.92525 19.0958 9.91548C19.1102 9.91021 19.1185 9.90119 19.1283 9.89517C19.1471 9.88164 19.1615 9.87036 19.1758 9.85908C19.2044 9.83652 19.2324 9.81321 19.2965 9.77561C19.4292 9.70266 19.4292 9.70642 19.5673 9.63874C19.7068 9.57257 19.7309 9.61317 19.875 9.55377C19.8931 9.54625 19.9082 9.53948 19.921 9.53121C19.9376 9.53045 19.9474 9.52068 19.9587 9.51692C19.9814 9.50639 19.9995 9.49812 20.0176 9.48985C20.0538 9.47255 20.0907 9.45601 20.1684 9.4342C20.2506 9.41615 20.2944 9.41239 20.3359 9.40637C20.357 9.40337 20.3774 9.40111 20.4038 9.39735C20.4317 9.39585 20.4649 9.39434 20.5094 9.39284C20.6451 9.38908 20.6391 9.52519 20.658 9.70266C20.6768 9.88013 20.6942 10.014 20.63 10.0463C20.6089 10.0561 20.5931 10.0636 20.5803 10.0719C20.5667 10.0824 20.5561 10.0914 20.5463 10.0997C20.526 10.1178 20.5063 10.1336 20.4649 10.1621C20.3789 10.2321 20.3902 10.2418 20.308 10.3201C20.225 10.3907 20.2371 10.4125 20.1564 10.4938C20.0772 10.575 20.0349 10.5231 19.9512 10.6058C19.869 10.6945 19.8607 10.6848 19.7754 10.7713C19.6879 10.8577 19.6962 10.8653 19.6095 10.954C19.5228 11.0442 19.5529 11.0736 19.4684 11.1661C19.384 11.2585 19.3561 11.23 19.2716 11.3255C19.1871 11.4202 19.1856 11.4195 19.1011 11.5157C19.0174 11.6127 19.0906 11.6819 19.0083 11.7812C18.9246 11.8827 18.9171 11.8737 18.8326 11.9767C18.7481 12.0797 18.6418 11.9827 18.5527 12.0865C18.466 12.1888 18.5505 12.261 18.4683 12.3602C18.3876 12.4595 18.3566 12.4324 18.2774 12.5324C18.1982 12.6325 18.2458 12.6731 18.1635 12.7693C18.0821 12.8656 18.0074 12.8039 17.929 12.9024C17.8505 13.0009 17.8897 13.0325 17.8113 13.131C17.7374 13.231 17.6838 13.1904 17.6091 13.2905C17.5345 13.3912 17.5586 13.4085 17.4892 13.5108C17.4198 13.6131 17.361 13.5725 17.2901 13.6755C17.2244 13.78 17.2607 13.8033 17.1958 13.9078C17.1302 14.0116 17.1822 14.0432 17.1241 14.1485C17.066 14.2545 17.1385 14.2951 17.0826 14.3997C17.0314 14.5057 16.888 14.4327 16.8337 14.541C16.7787 14.6493 16.8292 14.6719 16.7809 14.7809C16.7357 14.8915 16.756 14.9005 16.7161 15.0118C16.6761 15.1231 16.6278 15.105 16.5863 15.2171C16.5471 15.3299 16.6452 15.3622 16.6105 15.4743C16.5773 15.5871 16.5403 15.5758 16.5147 15.6916C16.4875 15.8066 16.5162 15.8142 16.4868 15.9277C16.4626 16.0435 16.4234 16.0353 16.4 16.1526C16.3774 16.2699 16.4294 16.2782 16.4136 16.3962C16.397 16.5143 16.3615 16.5098 16.345 16.6286C16.3321 16.7482 16.3314 16.7489 16.3208 16.8692C16.3118 16.9903 16.3721 16.9933 16.3683 17.1151C16.3638 17.2362 16.3208 17.2347 16.3155 17.3565C16.3095 17.4783 16.3042 17.4783 16.3035 17.5994C16.3027 17.7212 16.3623 17.7212 16.3653 17.8431C16.3683 17.9656 16.2922 17.9686 16.2982 18.0935C16.3042 18.2183 16.302 18.2183 16.311 18.3439C16.3208 18.4695 16.2446 18.4747 16.2567 18.6011C16.2688 18.7274 16.36 18.7184 16.3736 18.844C16.3847 18.9277 16.3955 19.0114 16.406 19.0951C16.4226 19.2207 16.4739 19.214 16.4905 19.3395C16.5079 19.4644 16.4023 19.4802 16.4211 19.6065C16.4392 19.7328 16.5388 19.7163 16.5592 19.8411C16.5803 19.966 16.5411 19.9727 16.5644 20.0976C16.5878 20.2216 16.5192 20.2352 16.5448 20.36C16.5705 20.4841 16.5162 20.4954 16.5426 20.6202C16.5705 20.7443 16.5848 20.7413 16.6127 20.8646C16.6421 20.9879 16.7063 20.9721 16.7364 21.094C16.7674 21.2158 16.6768 21.2391 16.7093 21.3609C16.7417 21.4827 16.7787 21.4715 16.8134 21.591C16.8481 21.7113 16.9152 21.6888 16.9529 21.8053C16.9899 21.9212 17.0479 21.9031 17.0894 22.0197C17.1324 22.1362 17.0955 22.1505 17.1415 22.2648C17.1867 22.3799 17.1377 22.3994 17.183 22.5152C17.232 22.6288 17.1551 22.6611 17.2041 22.7762C17.2531 22.8912 17.416 22.8168 17.4666 22.9266C17.5179 23.0371 17.4605 23.0649 17.5171 23.1732C17.5737 23.2808 17.4688 23.3364 17.5299 23.444C17.591 23.5515 17.7268 23.4748 17.7871 23.5793C17.8505 23.6823 17.8105 23.7064 17.8739 23.8102C17.9388 23.9132 17.9471 23.9079 18.0134 24.0095C18.0798 24.111 18.0119 24.1584 18.0828 24.2591C18.1545 24.3591 18.1771 24.3426 18.2525 24.4389C18.3287 24.5351 18.331 24.5329 18.4102 24.6276C18.4894 24.7224 18.5708 24.6539 18.6493 24.7472C18.7041 24.8078 18.7589 24.8682 18.8137 24.9284C18.8959 25.0194 18.8854 25.0299 18.9699 25.1194C19.0543 25.2089 18.9397 25.3217 19.0287 25.4104C19.1192 25.4992 19.1705 25.445 19.2633 25.5308C19.3553 25.6172 19.2995 25.6766 19.3923 25.7631C19.4873 25.8481 19.6072 25.7165 19.7008 25.8007C19.7724 25.8646 19.5047 26.1481 19.2459 26.4414C18.9872 26.7347 18.7338 27.049 18.6531 26.9769L18.6576 26.9814Z" fill="#FED16D"></path><path d="M34.8607 21.6881C34.9256 21.4963 35.0289 21.5377 35.0975 21.3444C35.1609 21.1496 35.2333 21.1744 35.2982 20.9782C35.3306 20.8797 35.3012 20.8165 35.271 20.7548C35.2401 20.6924 35.2046 20.63 35.2295 20.5322C35.2786 20.336 35.3842 20.3608 35.4332 20.1607C35.4686 19.9577 35.354 19.9359 35.3887 19.7366C35.4249 19.5373 35.5622 19.5561 35.5833 19.3501C35.6021 19.144 35.4573 19.1305 35.4686 18.9282L35.486 18.5214C35.4875 18.4702 35.4996 18.4326 35.5131 18.4011C35.5267 18.3695 35.5448 18.3439 35.5629 18.3183C35.5991 18.2672 35.6361 18.2146 35.6331 18.1115C35.6301 18.0078 35.5901 17.9574 35.5501 17.9077C35.5297 17.8829 35.5101 17.8581 35.495 17.8273C35.4777 17.7965 35.4641 17.7589 35.4596 17.7077C35.44 17.5047 35.5328 17.4972 35.5139 17.2911C35.4898 17.0866 35.4053 17.0971 35.3759 16.8948C35.3434 16.6933 35.4083 16.682 35.3623 16.4812C35.3178 16.2804 35.4075 16.2609 35.3645 16.0578C35.311 15.857 35.3366 15.8503 35.2816 15.6495C35.2537 15.5495 35.2258 15.5029 35.1963 15.4577C35.1647 15.4134 35.133 15.369 35.0998 15.2712C35.0319 15.0757 35.0885 15.0554 35.0168 14.8599C34.9369 14.6674 34.8916 14.6862 34.8124 14.4944C34.7355 14.3019 34.6895 14.323 34.6005 14.1372C34.5552 14.0447 34.5145 14.0071 34.4745 13.9703C34.433 13.9342 34.3976 13.8951 34.3448 13.8071C34.2437 13.6304 34.2633 13.6191 34.1622 13.4409C34.1132 13.3514 34.1064 13.295 34.1011 13.2378C34.0958 13.1807 34.0898 13.1228 34.0332 13.037C33.9767 12.9506 33.948 12.9077 33.9201 12.8641C33.9058 12.8423 33.8914 12.8212 33.8741 12.7941C33.8545 12.7678 33.8318 12.737 33.8009 12.6956C33.7391 12.6129 33.7202 12.5625 33.7013 12.5114C33.6825 12.461 33.6644 12.4091 33.5973 12.3294C33.4637 12.1685 33.3363 12.2745 33.202 12.1211C33.064 11.97 33.0926 11.9444 32.9523 11.794C32.8075 11.6481 32.7509 11.7037 32.6069 11.5601C32.4568 11.4225 32.4741 11.4045 32.324 11.2653C32.1686 11.1345 32.2569 11.0292 32.0985 10.8953C31.9356 10.7675 31.8722 10.8487 31.7108 10.7239C31.5456 10.6028 31.52 10.6389 31.3533 10.5224C31.1851 10.4081 31.2032 10.3802 31.0304 10.2712C30.9444 10.2163 30.8977 10.1952 30.8509 10.1749C30.8041 10.1539 30.7581 10.1328 30.6691 10.0832C30.4926 9.98317 30.5643 9.84405 30.3787 9.75005C30.1932 9.65755 30.1743 9.69892 29.9857 9.61695C29.7972 9.53423 29.7738 9.59288 29.5829 9.52295C29.4872 9.4876 29.4389 9.47181 29.3906 9.45527C29.3416 9.44173 29.2925 9.42819 29.1952 9.39887C29.0006 9.33946 28.9991 9.34472 28.8023 9.29735C28.6054 9.24997 28.5963 9.28757 28.3987 9.25298C28.1996 9.21839 28.2079 9.19508 28.0012 9.16575C27.796 9.13416 27.7915 9.14996 27.5826 9.12288C27.3714 9.09957 27.3797 9.02136 27.1655 9.00106C26.952 8.98 26.9512 8.98301 26.7363 8.96496C26.5213 8.95068 26.513 9.08077 26.2995 9.06949C26.0853 9.05896 26.0868 9.03039 25.8726 9.02362C25.6584 9.01535 25.6607 8.9033 25.4457 8.89954C25.2315 8.89728 25.2315 8.91458 25.018 8.91533C24.8061 8.92135 24.8038 8.91082 24.5933 8.92059C24.3821 8.92962 24.3859 8.98 24.1785 8.99504C24.0744 9.00106 24.0239 8.99204 23.9703 8.9785C23.9183 8.96722 23.8624 8.95068 23.7636 8.96572C23.6648 8.98 23.6128 8.97324 23.5615 8.96797C23.5117 8.96421 23.4619 8.96045 23.3661 8.9785C23.1662 9.02362 23.1693 9.05295 22.9679 9.10258C22.7687 9.15973 22.7876 9.22816 22.5937 9.29058C22.4964 9.32141 22.4519 9.34999 22.4082 9.37856C22.3652 9.40864 22.3229 9.43948 22.2279 9.47332C22.1329 9.5064 22.0884 9.53122 22.0446 9.55528C22.0001 9.57935 21.9556 9.60266 21.8636 9.64101C21.6826 9.72599 21.635 9.62522 21.4525 9.71772C21.2692 9.8072 21.2805 9.82901 21.1003 9.92602C20.9215 10.029 20.9139 10.0163 20.7359 10.1261C20.5587 10.2366 20.5293 10.1937 20.352 10.3118C20.1747 10.4306 20.1921 10.4569 20.0148 10.5788C19.8376 10.7058 19.8331 10.6961 19.6558 10.8262C19.4785 10.9555 19.5253 11.0172 19.3473 11.148C19.1693 11.2789 19.0939 11.1826 18.9158 11.315C18.8932 11.3315 18.8744 11.3465 18.8585 11.3616L18.8555 11.3646L18.854 11.3661C18.8653 11.3811 18.7567 11.2398 18.8027 11.2999H18.8035L18.805 11.3029L18.808 11.3074C18.8231 11.3285 18.8381 11.3488 18.8525 11.3691L18.851 11.3729C18.851 11.3729 18.8495 11.3781 18.8487 11.3804C18.8487 11.3826 18.8404 11.3969 18.8374 11.4052C18.8336 11.4142 18.8299 11.4233 18.8261 11.4323C18.808 11.4736 18.7891 11.5157 18.7212 11.5879C18.5855 11.7376 18.5304 11.6955 18.3924 11.8572C18.2543 12.0218 18.2581 12.0249 18.1216 12.1941C17.9858 12.364 18.1284 12.4738 17.9941 12.6445C17.8606 12.816 17.7444 12.7295 17.6124 12.9039C17.4804 13.0784 17.5355 13.1183 17.4058 13.2935C17.276 13.4687 17.2919 13.4807 17.1644 13.6567C17.0377 13.8334 17.0286 13.8274 16.9042 14.0041C16.7835 14.1831 16.7186 14.141 16.5911 14.3139C16.5263 14.4004 16.5029 14.4478 16.4787 14.4952C16.4667 14.5192 16.4546 14.5425 16.4388 14.5711C16.4305 14.5854 16.4214 14.6005 16.4101 14.6177C16.4041 14.626 16.3995 14.6358 16.3935 14.6463L16.3912 14.6501C16.3679 14.6365 16.3845 14.6463 16.3792 14.6433H16.3784L16.3762 14.6456L16.3686 14.6516C16.3633 14.6553 16.3581 14.6591 16.352 14.6636C16.1702 14.7952 16.1574 14.793 15.9998 14.9238C15.9741 14.9449 15.944 14.9599 15.9183 14.9629C15.8934 14.9652 15.8655 14.9652 15.8361 14.9629C15.7765 14.9592 15.7079 14.9426 15.6256 14.9238C15.5434 14.905 15.471 14.8982 15.4205 14.8629C15.3948 14.8449 15.3745 14.8193 15.3624 14.7794C15.3503 14.7411 15.3443 14.699 15.3496 14.6411C15.3654 14.5027 15.3707 14.438 15.3752 14.3703C15.3797 14.3042 15.3835 14.2357 15.4031 14.1094C15.4046 14.1011 15.4054 14.0936 15.4069 14.0861L15.4084 14.0748V14.0695H15.4092C15.4039 14.0658 15.4212 14.0763 15.3971 14.062V14.0605L15.3986 14.0583C15.4046 14.047 15.4114 14.0365 15.4167 14.0259C15.4258 14.0049 15.4341 13.9861 15.4416 13.9688C15.4559 13.9342 15.4665 13.9064 15.4771 13.8785C15.4982 13.8229 15.5185 13.7665 15.5736 13.665C15.686 13.4634 15.6528 13.4416 15.7795 13.2506C15.9055 13.0596 15.9787 13.11 16.1061 12.922C16.2344 12.7347 16.2502 12.746 16.3799 12.561C16.5104 12.376 16.4976 12.367 16.6296 12.1835C16.7624 12 16.7224 11.9707 16.8574 11.788C16.9932 11.606 17.0279 11.6323 17.1659 11.4511C17.3054 11.2698 17.3069 11.2721 17.451 11.0916C17.5981 10.9111 17.5121 10.842 17.6728 10.6555C17.715 10.6081 17.7475 10.5727 17.7761 10.5434C17.807 10.5133 17.8319 10.4885 17.8568 10.4645C17.8877 10.4366 17.9187 10.4088 17.9579 10.3742C17.9843 10.3532 18.013 10.3291 18.0454 10.3028C18.0627 10.2892 18.0816 10.2749 18.1042 10.2577C18.28 10.1208 18.372 10.2434 18.5493 10.1065C18.7258 9.96964 18.6556 9.87714 18.8351 9.73877C19.0139 9.60116 19.0411 9.63424 19.2221 9.49663C19.4084 9.36127 19.3699 9.30938 19.5608 9.17477C19.7523 9.04016 19.8082 9.12364 20.0043 8.99429C20.2011 8.8657 20.1763 8.82283 20.3799 8.69725C20.5888 8.57768 20.6205 8.63559 20.834 8.52504C20.9396 8.46864 20.9901 8.43405 21.0414 8.40172C21.0927 8.36863 21.144 8.33554 21.2534 8.2844C21.3643 8.23628 21.4276 8.23026 21.4902 8.22424C21.5528 8.21823 21.6147 8.21071 21.7271 8.1701C21.8395 8.12799 21.8915 8.0964 21.9443 8.06482C21.9971 8.03549 22.0507 8.00616 22.1645 7.96856C22.2784 7.93021 22.3312 7.89863 22.384 7.86779C22.4368 7.83621 22.4904 7.80463 22.6058 7.77154C22.8374 7.71138 22.8132 7.6264 23.0516 7.56925C23.1791 7.54368 23.2507 7.57226 23.3209 7.60083C23.3903 7.63091 23.4566 7.66476 23.5773 7.64596C23.6988 7.6264 23.7546 7.61061 23.8134 7.59031C23.8715 7.57151 23.9311 7.54895 24.0488 7.53992C24.2848 7.52112 24.2833 7.49029 24.5179 7.47826C24.7533 7.46472 24.7533 7.52188 24.9863 7.5136C25.2179 7.50984 25.2171 7.40607 25.4495 7.40607C25.681 7.40757 25.681 7.44216 25.9111 7.44818C26.1419 7.45269 26.1427 7.42411 26.3735 7.43314C26.6043 7.44291 26.6013 7.48803 26.8313 7.50007C27.0614 7.51661 27.0651 7.4572 27.2967 7.47751C27.5275 7.49631 27.5245 7.53466 27.7553 7.55797C27.9884 7.58504 27.9861 7.58504 28.2215 7.61813C28.3391 7.63468 28.4002 7.62565 28.4636 7.62039C28.5269 7.61437 28.5903 7.6076 28.711 7.63092C28.9531 7.67528 28.9418 7.72491 29.1786 7.78207C29.4162 7.83922 29.4132 7.8505 29.6456 7.92194C29.7617 7.95728 29.8243 7.96104 29.8877 7.9648C29.9503 7.97082 30.0121 7.97759 30.1268 8.0197C30.3561 8.10468 30.3282 8.17612 30.5499 8.27237C30.7717 8.36863 30.7732 8.36562 30.9897 8.47316C31.0983 8.52655 31.1436 8.57016 31.1881 8.61453C31.2333 8.6574 31.2771 8.70252 31.3812 8.76117C31.486 8.81908 31.5501 8.82659 31.6142 8.83487C31.6791 8.84314 31.7447 8.84991 31.8466 8.91458C32.0502 9.04317 32.0563 9.03415 32.2561 9.16876C32.453 9.30637 32.4869 9.25824 32.6831 9.40037C32.8754 9.54776 32.8068 9.63575 32.9946 9.78239C33.1771 9.9358 33.2442 9.85608 33.4291 10.0117C33.6063 10.1749 33.5784 10.205 33.7541 10.3682C33.9246 10.5366 33.8726 10.5885 34.04 10.7577C34.2037 10.9314 34.1577 10.9728 34.3168 11.1488C34.473 11.327 34.4805 11.321 34.6314 11.5037C34.7076 11.5947 34.7558 11.6323 34.8049 11.6699C34.8539 11.7075 34.9029 11.7451 34.9746 11.8414C35.0462 11.9369 35.0606 12 35.0726 12.064C35.0847 12.1279 35.0968 12.191 35.1624 12.2903C35.228 12.3896 35.268 12.4339 35.3087 12.4783C35.3487 12.5234 35.3917 12.5663 35.449 12.6708C35.5667 12.8769 35.6285 12.8415 35.747 13.0498C35.8081 13.1529 35.8435 13.201 35.885 13.2476C35.925 13.2942 35.965 13.3416 36.0178 13.4491C36.1211 13.6657 36.0939 13.6785 36.1837 13.8996C36.275 14.1207 36.2237 14.141 36.3142 14.3613C36.3964 14.5847 36.3104 14.6155 36.3881 14.8381C36.4266 14.9494 36.4892 14.9915 36.5525 15.0344C36.6144 15.0772 36.6732 15.1223 36.7057 15.2381C36.769 15.4698 36.7057 15.4863 36.7675 15.7164C36.8165 15.9503 36.6981 15.9759 36.7456 16.2067C36.7939 16.4368 36.9508 16.4098 36.9848 16.6466C37.0157 16.8843 36.9734 16.8895 36.9983 17.1264C37.0164 17.3641 37.0247 17.3633 37.0428 17.6009C37.0474 17.6603 37.0451 17.7055 37.0398 17.7431C37.0323 17.7807 37.0217 17.8107 37.0112 17.8416C36.99 17.9017 36.9689 17.9619 36.9704 18.08C36.9719 18.198 36.9802 18.2574 36.9878 18.3168C36.9961 18.3762 37.0051 18.4356 36.9976 18.5537C36.9855 18.7906 36.9931 18.7913 36.9802 19.0282C36.978 19.0876 36.9802 19.1328 36.9855 19.1704C36.9915 19.208 37.0013 19.2388 37.0112 19.2696C37.0315 19.3313 37.0511 19.3937 37.0368 19.5133C37.0074 19.7517 37.0149 19.7524 36.9689 19.9893C36.9259 20.2262 36.9093 20.2232 36.8671 20.46C36.8105 20.6947 36.6514 20.6571 36.594 20.8864C36.5646 21.0015 36.5706 21.0646 36.5722 21.1271C36.5722 21.1887 36.5722 21.2519 36.5352 21.3654C36.4982 21.4797 36.4598 21.5301 36.4221 21.5798C36.4032 21.6046 36.3843 21.6294 36.3655 21.6625C36.3466 21.6948 36.33 21.7362 36.3029 21.7903C36.2048 22.0069 36.3662 22.0716 36.2629 22.2912C36.1822 22.4589 35.8571 22.2799 35.5162 22.1265C35.1752 21.9731 34.8184 21.8362 34.8675 21.6888L34.8607 21.6881Z" fill="#FED16D"></path><path d="M36.521 21.3662C36.5338 21.4542 36.4131 21.4181 36.3913 21.4948C36.3679 21.5715 36.2932 21.5482 36.2721 21.6241C36.251 21.7008 36.4335 21.761 36.4139 21.8407C36.3943 21.9196 36.2894 21.8835 36.2691 21.961C36.2464 22.0385 36.3566 22.0783 36.3287 22.1543C36.2992 22.2302 36.1597 22.1768 36.131 22.2513C36.1016 22.3257 36.2487 22.3836 36.2163 22.4581C36.1846 22.5325 36.1808 22.531 36.1491 22.6055C36.1175 22.6799 35.9749 22.619 35.9432 22.6927C35.91 22.7649 36.0518 22.8288 36.0179 22.9025C35.984 22.9762 35.8987 22.9371 35.8648 23.01C35.8308 23.083 35.9002 23.1161 35.8648 23.189C35.8286 23.2612 35.7743 23.2341 35.7381 23.3063C35.7011 23.3778 35.6219 23.3372 35.5834 23.4071C35.545 23.477 35.5208 23.4642 35.4824 23.5342C35.4439 23.6041 35.4967 23.6327 35.4582 23.7034C35.4175 23.7726 35.3692 23.7447 35.3285 23.8132C35.2877 23.8816 35.3292 23.9064 35.2885 23.9749C35.2478 24.044 35.2825 24.0651 35.2395 24.1328C35.1965 24.2005 35.2629 24.2418 35.2199 24.3102C35.1761 24.3779 35.1588 24.3674 35.1128 24.4336C35.0675 24.5005 34.9792 24.4418 34.9347 24.508C34.9046 24.5521 34.8744 24.596 34.8442 24.6396C34.7975 24.7043 34.7499 24.6712 34.7032 24.7351C34.6564 24.799 34.7907 24.8968 34.7424 24.9622C34.6949 25.0277 34.667 25.0066 34.6172 25.0698C34.5674 25.1329 34.63 25.1811 34.5795 25.245C34.5289 25.3082 34.5116 25.2946 34.4595 25.3563C34.4075 25.4187 34.3042 25.3345 34.2529 25.3954C34.2016 25.457 34.2755 25.5195 34.2242 25.5811C34.1707 25.6413 34.1993 25.6661 34.1458 25.727C34.0915 25.7872 34.0635 25.7624 34.0092 25.8225C33.9557 25.8827 33.9662 25.8925 33.9104 25.9511C33.8546 26.0098 33.7392 25.9007 33.6841 25.9586C33.6283 26.0158 33.6577 26.0436 33.6004 26.1C33.5431 26.1557 33.5838 26.1963 33.5265 26.2527C33.4692 26.3091 33.4729 26.3128 33.4156 26.3692C33.3568 26.4234 33.3621 26.4294 33.3025 26.4835C33.2429 26.5377 33.2715 26.5693 33.212 26.6234C33.1524 26.6783 33.1411 26.6655 33.0807 26.7189C33.0196 26.7715 33.0279 26.7813 32.9668 26.834C32.905 26.8858 32.8582 26.831 32.7956 26.8806C32.7539 26.9142 32.7121 26.9478 32.6704 26.9814C32.6078 27.0317 32.687 27.131 32.6236 27.1814C32.5587 27.2303 32.5429 27.2092 32.478 27.2573C32.4132 27.3055 32.3468 27.2167 32.2827 27.2649C32.2186 27.313 32.2269 27.3243 32.1612 27.3709C32.0956 27.4168 32.0918 27.4115 32.0262 27.4574C31.9598 27.5025 31.9885 27.5446 31.9206 27.5882C31.8527 27.6318 31.8143 27.5739 31.7471 27.6175C31.68 27.6612 31.6521 27.6183 31.585 27.6604C31.5163 27.7003 31.5314 27.7243 31.462 27.7649C31.3934 27.8048 31.4326 27.8702 31.3624 27.9101C31.2931 27.9507 31.3194 27.9958 31.2485 28.0342C31.1776 28.0718 31.1875 28.0898 31.1158 28.1274C31.0441 28.165 30.9951 28.0763 30.9234 28.1116C30.8518 28.147 30.8616 28.165 30.7892 28.2003C30.7175 28.2357 30.7115 28.2244 30.6391 28.2598C30.5659 28.2928 30.5433 28.2477 30.4709 28.2808C30.3985 28.3139 30.4105 28.3402 30.3381 28.3733C30.2657 28.4064 30.2612 28.3974 30.188 28.4282C30.1141 28.459 30.145 28.5282 30.0711 28.559C29.9964 28.5891 29.9497 28.4793 29.875 28.5072C29.8011 28.5357 29.826 28.5966 29.7513 28.6245C29.6766 28.6523 29.651 28.5876 29.5763 28.6162C29.5009 28.6418 29.5031 28.6463 29.4277 28.6718C29.353 28.6974 29.4141 28.8666 29.3372 28.8922C29.2602 28.9178 29.2135 28.7831 29.1358 28.7997C29.0581 28.817 29.0792 28.8809 29 28.8974C28.9208 28.9132 28.9276 28.9335 28.8477 28.9471C28.7685 28.9606 28.7654 28.9508 28.6862 28.9651C28.607 28.9787 28.5897 28.9178 28.5112 28.932C28.4313 28.9396 28.4388 28.9696 28.3581 28.9734C28.2767 28.9764 28.2744 28.9659 28.1937 28.9696C28.1318 28.9711 28.0911 28.7719 28.0277 28.5094C27.9644 28.247 27.9101 28.0477 27.9599 28.0206C28.0255 27.9868 28.0195 27.9642 28.0843 27.9289C28.1492 27.895 28.1409 27.865 28.2058 27.8334C28.2714 27.8048 28.2638 27.777 28.3287 27.7476C28.3936 27.7183 28.4177 27.7988 28.4841 27.771C28.5497 27.7431 28.555 27.7597 28.6206 27.7303C28.6855 27.7003 28.681 27.6852 28.7458 27.6551C28.8099 27.6236 28.7956 27.5814 28.8605 27.5544C28.9261 27.5281 28.9412 27.5694 29.0068 27.5431C29.0511 27.5266 29.0953 27.5103 29.1396 27.4942C29.2044 27.4656 29.1652 27.3656 29.2293 27.337C29.2934 27.3085 29.298 27.3198 29.3621 27.2919C29.4262 27.2641 29.4858 27.4025 29.5499 27.3724C29.6148 27.3423 29.568 27.237 29.6314 27.207C29.6947 27.1761 29.7121 27.2145 29.7747 27.1814C29.8373 27.149 29.8109 27.0942 29.8735 27.0618C29.9353 27.0295 29.9798 27.1182 30.0424 27.0859C30.1043 27.0513 30.0809 27.0062 30.1428 26.9716C30.2039 26.937 30.2363 26.9979 30.2981 26.9633C30.36 26.9295 30.3449 26.9009 30.4053 26.8648C30.4656 26.8287 30.5018 26.8919 30.5629 26.855C30.624 26.8182 30.6021 26.7821 30.6617 26.743C30.7213 26.7046 30.6896 26.652 30.7485 26.6136C30.8073 26.5753 30.7613 26.5016 30.8201 26.464C30.8767 26.4241 30.9657 26.5617 31.0253 26.5234C31.0841 26.4843 31.0562 26.4414 31.115 26.4031C31.1739 26.3647 31.1573 26.3399 31.2146 26.3C31.2719 26.2594 31.3021 26.3023 31.3594 26.2617C31.4168 26.2203 31.3594 26.1406 31.4145 26.0985C31.4703 26.0564 31.4914 26.0842 31.5472 26.0421C31.6031 26 31.585 25.9767 31.6408 25.9346C31.6951 25.8902 31.7207 25.9233 31.7758 25.8789C31.8301 25.8346 31.7954 25.7924 31.8497 25.7481C31.904 25.7045 31.9259 25.7308 31.9794 25.6849C32.0152 25.6548 32.0509 25.6247 32.0866 25.5947C32.1394 25.5488 32.0964 25.5007 32.1469 25.4533C32.1974 25.4059 32.2269 25.4382 32.2781 25.3909C32.3294 25.3435 32.3355 25.3495 32.3868 25.3021C32.4365 25.2525 32.3958 25.2111 32.4448 25.1623C32.4939 25.1134 32.5489 25.1683 32.5987 25.1186C32.6485 25.0698 32.6493 25.0698 32.6975 25.0194C32.7458 24.9682 32.8001 25.0201 32.8491 24.969C32.8974 24.9171 32.8295 24.8547 32.8748 24.8021C32.9208 24.7494 32.9178 24.7464 32.9638 24.6945C33.0098 24.6419 32.9698 24.6073 33.0158 24.5554C33.0596 24.502 33.1433 24.5719 33.1886 24.5178C33.2331 24.4637 33.1554 24.3997 33.1999 24.3463C33.2444 24.293 33.2738 24.3163 33.3168 24.2614C33.359 24.2057 33.4141 24.2486 33.4571 24.1929C33.4993 24.1373 33.5461 24.1719 33.5868 24.114C33.6283 24.0568 33.6163 24.0478 33.657 23.9906C33.6985 23.9335 33.6442 23.8951 33.6849 23.838C33.7241 23.7801 33.8033 23.8342 33.8433 23.7756C33.8825 23.7169 33.8523 23.6966 33.8916 23.638C33.9315 23.5793 33.8712 23.541 33.9089 23.4815C33.9459 23.4221 33.8953 23.3906 33.9323 23.3311C33.9685 23.2717 34.0024 23.292 34.0371 23.2311C34.0718 23.171 34.1186 23.198 34.1541 23.1371C34.1895 23.0762 34.2642 23.1191 34.2996 23.0574C34.3336 22.995 34.1752 22.9078 34.2076 22.8461C34.24 22.7844 34.2981 22.8153 34.3313 22.7536C34.3645 22.6919 34.4686 22.7453 34.5003 22.6822C34.532 22.6182 34.3871 22.5461 34.4173 22.4836C34.4475 22.4212 34.4927 22.4423 34.5214 22.3784C34.5501 22.3144 34.5433 22.3114 34.5719 22.2475C34.6006 22.1836 34.6828 22.2204 34.7115 22.1558C34.7386 22.0903 34.7115 22.0791 34.7379 22.0136C34.765 21.949 34.7582 21.946 34.7854 21.8813C34.8125 21.8166 34.7077 21.7753 34.7326 21.7098C34.7482 21.6662 34.764 21.6226 34.7801 21.579C34.805 21.5143 34.8208 21.5196 34.8465 21.4549C34.8759 21.3917 35.0328 21.4466 35.0607 21.3812C35.0886 21.3158 35.0147 21.291 35.0434 21.2263C35.066 21.1594 35.1422 21.1834 35.1633 21.1158C35.1859 21.0481 35.0034 20.9939 35.06 20.9375C35.0698 20.9262 35.0992 20.9255 35.1429 20.9308C35.1535 20.9323 35.1656 20.9345 35.1784 20.936C35.192 20.939 35.2063 20.9413 35.2214 20.9443C35.2485 20.9503 35.2795 20.9571 35.3126 20.9654C35.4461 20.9984 35.6219 21.0511 35.7984 21.1022C35.9749 21.1534 36.1552 21.2022 36.2887 21.2466C36.3219 21.2579 36.3528 21.2684 36.3792 21.2782C36.3943 21.2842 36.4079 21.2895 36.4214 21.2947C36.4335 21.3 36.4448 21.3053 36.4546 21.3098C36.4954 21.3293 36.5195 21.3481 36.521 21.3647V21.3662Z" fill="#FED16D"></path><path d="M30.5786 28.5832C30.4836 28.6238 30.4421 28.5215 30.3508 28.5681C30.2595 28.6155 30.2309 28.5418 30.1396 28.5877C30.0476 28.6305 30.1162 28.8193 30.0219 28.8644C29.9277 28.908 29.8892 28.7975 29.7949 28.8388C29.7006 28.8802 29.7406 29.0035 29.644 29.0419C29.546 29.0765 29.4985 28.9208 29.4012 28.9539C29.3039 28.9862 29.3521 29.1532 29.2526 29.184C29.153 29.2126 29.1507 29.2066 29.0504 29.2329C28.9493 29.2592 28.9079 29.093 28.8091 29.1178C28.7095 29.1411 28.7487 29.3073 28.6469 29.3299C28.5451 29.3517 28.5232 29.2509 28.4229 29.2727C28.3225 29.2946 28.3391 29.3795 28.2373 29.3976C28.1355 29.4156 28.1234 29.3502 28.0216 29.3675C27.9197 29.3848 27.9039 29.287 27.8028 29.3021C27.7018 29.3164 27.6972 29.2855 27.5962 29.2991C27.4951 29.3126 27.5041 29.3788 27.4023 29.3923C27.3005 29.4059 27.2929 29.3419 27.1919 29.3525C27.0908 29.3622 27.0961 29.4156 26.9935 29.4247C26.8917 29.4329 26.8954 29.4811 26.7928 29.4856C26.6903 29.4908 26.6963 29.5773 26.593 29.5818C26.4896 29.5863 26.4881 29.5623 26.3855 29.5668C26.2822 29.5675 26.2784 29.4517 26.1766 29.4532L25.9722 29.4547C25.8696 29.4562 25.8696 29.3908 25.7685 29.3886C25.6675 29.3855 25.6644 29.5668 25.5611 29.5638C25.4578 29.56 25.4593 29.5262 25.3567 29.5187C25.2541 29.5119 25.2496 29.5969 25.1462 29.5893C25.0429 29.5818 25.0444 29.5563 24.9418 29.5495C24.8385 29.5397 24.8506 29.3953 24.7495 29.3848C24.6477 29.3743 24.6379 29.478 24.5353 29.4668C24.4327 29.4562 24.4282 29.4961 24.3256 29.4811C24.223 29.466 24.2283 29.4254 24.1264 29.4104C24.0246 29.3946 24.0216 29.4126 23.9205 29.3946C23.8187 29.375 23.8466 29.2081 23.747 29.1893C23.6467 29.1705 23.6392 29.2103 23.5389 29.1915C23.4385 29.1712 23.4272 29.2291 23.3269 29.2066C23.2266 29.1833 23.2258 29.1893 23.1255 29.166C23.0252 29.1427 23.0229 29.1517 22.9241 29.1239C22.8253 29.0968 22.814 29.1396 22.7144 29.1126C22.6149 29.0847 22.6186 29.0705 22.5198 29.0411C22.4218 29.0095 22.418 29.0231 22.3192 28.9915C22.2211 28.9599 22.2445 28.8855 22.1472 28.8546C22.0499 28.8231 22.0507 28.8208 21.9541 28.7862C21.8583 28.7509 21.8138 28.8757 21.7165 28.8403C21.6192 28.8043 21.6283 28.7802 21.5332 28.7403C21.4374 28.7005 21.4797 28.5937 21.3854 28.5553C21.2911 28.5162 21.2843 28.532 21.1908 28.4914C21.098 28.4486 21.1003 28.4425 21.0075 28.3997C20.9147 28.3568 20.8936 28.4027 20.8008 28.3591C20.708 28.3155 20.7397 28.2485 20.6484 28.2027C20.5572 28.156 20.5805 28.1094 20.49 28.0635C20.3995 28.0177 20.3859 28.044 20.2969 27.9936C20.2079 27.944 20.171 28.0124 20.0812 27.962C19.9922 27.9116 19.9643 27.9605 19.8753 27.9086C19.7878 27.8545 19.7772 27.8725 19.689 27.8184C19.6015 27.7642 19.6565 27.674 19.5698 27.6199C19.4838 27.565 19.4733 27.5815 19.3873 27.5259C19.302 27.4695 19.3088 27.4582 19.2236 27.4018C19.1376 27.3454 19.1685 27.3018 19.0856 27.2423C19.0026 27.1829 18.9852 27.2078 18.9023 27.1476C18.82 27.0874 18.8238 27.0822 18.7431 27.019C18.6624 26.9558 18.6134 27.0198 18.5319 26.9566C18.4504 26.8927 18.5319 26.7919 18.4527 26.7295C18.375 26.6641 18.3298 26.7182 18.2513 26.652C18.1736 26.5851 18.2227 26.5287 18.1457 26.4625C18.068 26.3971 18.0665 26.3979 17.9918 26.3294C17.9194 26.2587 17.7867 26.3994 17.7158 26.3234C17.6456 26.2467 17.7527 26.1369 17.6856 26.0595C17.6185 25.9827 17.5664 26.0331 17.4993 25.9549C17.4329 25.8767 17.4163 25.8918 17.3515 25.812C17.2873 25.7308 17.2964 25.7233 17.2323 25.6421C17.1689 25.5609 17.2217 25.5143 17.1584 25.4345C17.0973 25.3526 17.0678 25.3774 17.0098 25.2924C16.9532 25.2059 16.963 25.1984 16.9072 25.1127C16.8642 25.0465 17.0656 24.9021 17.3213 24.7028C17.5777 24.5036 17.7701 24.3434 17.8206 24.3908C17.8862 24.4539 17.9074 24.4366 17.973 24.4983C18.0371 24.5615 18.0597 24.5427 18.1231 24.6058C18.188 24.6675 18.2121 24.6464 18.277 24.7074C18.3418 24.7683 18.2732 24.8307 18.3381 24.8931C18.4037 24.954 18.3901 24.9675 18.4572 25.027C18.5244 25.0864 18.5364 25.0751 18.6036 25.1345C18.6699 25.1947 18.7084 25.1555 18.7786 25.2112C18.848 25.2676 18.817 25.2999 18.8842 25.3586C18.9498 25.4187 18.9453 25.424 19.0139 25.4812C19.0818 25.5391 19.1587 25.4511 19.2259 25.5082C19.293 25.5654 19.2847 25.5759 19.3518 25.6331C19.4212 25.6872 19.3194 25.8143 19.3903 25.8699C19.4612 25.9256 19.5359 25.8293 19.606 25.8842C19.6762 25.9391 19.652 25.9707 19.7244 26.0241C19.7968 26.0767 19.8346 26.0241 19.907 26.076C19.9786 26.1279 19.9198 26.2136 19.9952 26.2625C20.0707 26.3121 20.1001 26.2678 20.1747 26.3174C20.2494 26.3663 20.2102 26.4279 20.2879 26.4738C20.3656 26.5189 20.3829 26.4919 20.4606 26.537C20.5383 26.5821 20.4998 26.6468 20.5783 26.6926C20.6575 26.737 20.6801 26.6964 20.7601 26.7393C20.84 26.7814 20.8702 26.7265 20.9494 26.7686C21.0286 26.8107 21.0701 26.7317 21.15 26.7693C21.23 26.8069 21.1546 26.9581 21.236 26.9972C21.3175 27.0355 21.3394 26.9904 21.4216 27.0265C21.5045 27.0619 21.5159 27.0355 21.5988 27.0709C21.6811 27.1062 21.6592 27.1551 21.7421 27.1912C21.8259 27.2251 21.8659 27.128 21.9488 27.1604C22.0318 27.192 22.019 27.2258 22.1019 27.2574C22.1849 27.2897 22.1962 27.2604 22.2807 27.289C22.3652 27.3175 22.3509 27.3582 22.4353 27.3867C22.5206 27.4146 22.5379 27.3627 22.6232 27.3875C22.7084 27.4123 22.6971 27.4476 22.7831 27.4725C22.8399 27.49 22.8967 27.5073 22.9535 27.5243C23.0395 27.5477 23.0584 27.4792 23.1444 27.501C23.2304 27.5221 23.219 27.5665 23.305 27.5875C23.391 27.6093 23.3895 27.6176 23.4763 27.6349C23.5637 27.6522 23.5773 27.5928 23.6641 27.6101C23.7508 27.6274 23.7342 27.7093 23.8217 27.7251C23.8805 27.7352 23.9391 27.7454 23.9975 27.756C24.0857 27.7703 24.0721 27.85 24.1611 27.8643C24.2501 27.8778 24.266 27.7763 24.3542 27.7875C24.4425 27.7981 24.4432 27.7936 24.5323 27.8041C24.6205 27.8146 24.6273 27.7597 24.7155 27.7657C24.8038 27.7725 24.7925 27.8898 24.8815 27.8973C24.9712 27.9041 24.9795 27.7966 25.0685 27.8026C25.1576 27.8056 25.1545 27.8485 25.2435 27.8522C25.3325 27.856 25.3288 27.9312 25.4185 27.9349C25.5083 27.9395 25.506 27.9974 25.5965 27.9989C25.6871 27.9989 25.6871 27.9831 25.7768 27.9831C25.8673 27.9831 25.8673 27.9124 25.9563 27.9086C26.0461 27.9049 26.0476 28.0109 26.1381 28.0079C26.2286 28.0049 26.2271 27.9643 26.3169 27.9613C26.4067 27.9552 26.4029 27.8785 26.4919 27.8718C26.5809 27.865 26.5771 27.7996 26.6654 27.7928C26.7536 27.7868 26.7574 27.8267 26.8456 27.8169C26.9339 27.8063 26.9399 27.8665 27.0297 27.8575C27.1187 27.8477 27.13 27.9447 27.2198 27.9327C27.3095 27.9199 27.2831 27.7214 27.3714 27.7093C27.4589 27.6966 27.4702 27.768 27.5584 27.756C27.6467 27.7424 27.6678 27.8695 27.7568 27.8537C27.8458 27.8372 27.8141 27.6612 27.9009 27.6454C27.9884 27.6296 27.9989 27.6823 28.0857 27.6627C28.1732 27.6432 28.1709 27.6349 28.2584 27.6153C28.3452 27.5958 28.3685 27.6928 28.456 27.6717C28.5428 27.6484 28.5352 27.6168 28.622 27.5943C28.7087 27.5717 28.7065 27.5627 28.794 27.5416C28.8822 27.5228 28.8475 27.4025 28.9335 27.3815C28.9908 27.3664 29.0479 27.3511 29.1047 27.3356C29.1915 27.316 29.199 27.3379 29.285 27.316C29.3717 27.2957 29.4291 27.4627 29.5173 27.4394C29.6056 27.4176 29.5769 27.3394 29.6659 27.3198C29.7534 27.2965 29.7836 27.3755 29.8711 27.3506C29.9586 27.3251 29.893 27.1626 29.9774 27.1333C30.0423 27.1115 30.1826 27.4702 30.3335 27.8274C30.4843 28.1846 30.651 28.5478 30.5786 28.5802V28.5832Z" fill="#FED16D"></path></svg>