<svg xmlns="http://www.w3.org/2000/svg" width="1em" height="1em" viewBox="0 0 32 32" fill="currentColor" focusable="false"><path d="M3.15915 2.56543H28.8357C28.8974 2.56543 28.9438 2.60143 28.9438 2.64771V8.20688C28.9438 8.25316 28.8923 8.28916 28.8357 8.28916H3.15915C3.1025 8.28916 3.05615 8.25316 3.05615 8.20688V2.64771C3.05615 2.60143 3.1025 2.56543 3.15915 2.56543Z" fill="black"></path><path d="M15.9974 12.7529C14.5349 12.7529 13.3556 13.7248 13.3556 14.7997C13.3556 16.4607 15.9974 18.6052 15.9974 18.6052C15.9974 18.6052 18.6392 16.4607 18.6392 14.7997C18.6392 13.7248 17.4548 12.7529 15.9974 12.7529Z" fill="black"></path><path d="M15.9974 29.908C13.9685 29.908 12.3257 28.031 12.3257 25.9534C12.3257 22.7496 15.9975 18.6045 15.9975 18.6045C15.9975 18.6045 19.6691 22.7496 19.6691 25.9534C19.6691 28.031 18.0265 29.908 15.9974 29.908Z" fill="black"></path></svg>