<svg xmlns="http://www.w3.org/2000/svg" width="20" height="25" viewBox="0 0 20 25" fill="none"><path d="M13.5655 4.34628C14.4026 3.31088 14.9707 1.92065 14.8209 0.5C13.5954 0.560255 12.0999 1.29945 11.2341 2.33566C10.4567 3.22301 9.76862 4.67146 9.948 6.03256C11.3237 6.15055 12.6981 5.35263 13.5655 4.34628Z" fill="black"></path><path d="M14.8052 6.29792C12.8074 6.18025 11.1087 7.41909 10.1547 7.41909C9.20007 7.41909 7.73909 6.35722 6.15891 6.38584C4.10222 6.41571 2.19384 7.56556 1.15015 9.39438C-0.996531 13.0529 0.583645 18.4798 2.67118 21.4594C3.68494 22.9336 4.90668 24.5567 6.51652 24.4984C8.03755 24.4394 8.63373 23.5245 10.4826 23.5245C12.3301 23.5245 12.8672 24.4984 14.4773 24.4689C16.147 24.4394 17.1908 22.994 18.2046 21.5185C19.3676 19.838 19.8436 18.2154 19.8736 18.1263C19.8436 18.0968 16.6539 16.8869 16.6243 13.2588C16.5942 10.2209 19.1286 8.77591 19.2479 8.68629C17.8167 6.59323 15.5805 6.35722 14.8052 6.29792Z" fill="black"></path></svg>