<svg xmlns="http://www.w3.org/2000/svg" width="24" height="24" viewBox="0 0 24 24" fill="none">
  <path fill-rule="evenodd" clip-rule="evenodd" d="M12 0C5.37258 0 0 5.37258 0 12C0 18.6274 5.37258 24 12 24C18.6274 24 24 18.6274 24 12C24 5.37258 18.6274 0 12 0ZM8.12132 12.2929C7.73079 11.9024 7.09763 11.9024 6.70711 12.2929C6.31658 12.6834 6.31658 13.3166 6.70711 13.7071L9.57082 16.5708C10.0272 17.0272 10.7629 17.0408 11.2359 16.6016L18.0947 10.2328C18.4994 9.85698 18.5228 9.22425 18.147 8.81954C17.7712 8.41483 17.1385 8.39139 16.7338 8.7672L10.4399 14.6115L8.12132 12.2929Z" fill="#369B3D"/>
<script xmlns=""/></svg>