<svg xmlns="http://www.w3.org/2000/svg" width="27" height="27" viewBox="0 0 27 27" fill="none"><g clip-path="url(#clip0_1004_3903)"><path d="M11.5896 26.37C5.41456 25.265 0.734558 19.935 0.734558 13.5C0.734558 6.35 6.58456 0.5 13.7346 0.5C20.8846 0.5 26.7346 6.35 26.7346 13.5C26.7346 19.935 22.0546 25.265 15.8796 26.37L15.1646 25.785H12.3046L11.5896 26.37Z" fill="url(#paint0_linear_1004_3903)"></path><path d="M18.8045 17.14L19.3895 13.5H15.9445V10.965C15.9445 9.92501 16.3345 9.14501 17.8945 9.14501H19.5845V5.83001C18.6745 5.70001 17.6345 5.57001 16.7245 5.57001C13.7345 5.57001 11.6545 7.39001 11.6545 10.64V13.5H8.40454V17.14H11.6545V26.305C12.3695 26.435 13.0845 26.5 13.7995 26.5C14.5145 26.5 15.2295 26.435 15.9445 26.305V17.14H18.8045Z" fill="white"></path></g><defs><linearGradient id="paint0_linear_1004_3903" x1="13.7352" y1="25.5958" x2="13.7352" y2="0.495211" gradientUnits="userSpaceOnUse"><stop stop-color="#0062E0"></stop><stop offset="1" stop-color="#19AFFF"></stop></linearGradient><clipPath id="clip0_1004_3903"><rect width="26" height="26" fill="white" transform="translate(0.734558 0.5)"></rect></clipPath></defs></svg>