<svg xmlns="http://www.w3.org/2000/svg" width="24" height="25" viewBox="0 0 24 25" fill="none"><path fill-rule="evenodd" clip-rule="evenodd" d="M23.7611 12.7671C23.7611 11.9497 23.6961 11.1344 23.566 10.3344H12.5032V14.9507H18.8409C18.5808 16.4348 17.7333 17.7681 16.4957 18.6008V21.5996H20.2758C22.4909 19.5166 23.7611 16.4348 23.7611 12.7671Z" fill="#4285F4"></path><path fill-rule="evenodd" clip-rule="evenodd" d="M12.5038 24.4999C15.664 24.4999 18.3365 23.4333 20.2743 21.5995L16.4963 18.6007C15.4364 19.3329 14.0861 19.7504 12.5038 19.7504C9.44117 19.7504 6.85103 17.6346 5.92118 14.7997H2.02838V17.899C4.01596 21.9492 8.07349 24.4999 12.5038 24.4999Z" fill="#34A853"></path><path fill-rule="evenodd" clip-rule="evenodd" d="M5.92284 14.7992C5.43299 13.3151 5.43299 11.6998 5.92284 10.2004V7.11633H2.02788C0.350245 10.4998 0.350245 14.4997 2.02788 17.8832L5.92284 14.7992Z" fill="#FBBC04"></path><path fill-rule="evenodd" clip-rule="evenodd" d="M12.5038 5.25029C14.1815 5.2175 15.7941 5.86666 17.0014 7.04914L20.3566 3.61755C18.2238 1.58482 15.4213 0.467916 12.5038 0.500702C8.07132 0.500702 4.01596 3.06675 2.02838 7.1169L5.92335 10.2163C6.85103 7.36826 9.44117 5.25029 12.5038 5.25029Z" fill="#EA4335"></path></svg>