<svg xmlns="http://www.w3.org/2000/svg" width="1em" height="1.0625em" viewBox="0 0 16 17" fill="currentColor" focusable="false"><path fill-rule="evenodd" clip-rule="evenodd" d="M7.75 2.34882C7.94891 2.34882 8.13968 2.42784 8.28033 2.56849C8.42098 2.70914 8.5 2.89991 8.5 3.09882V7.34882H12.75C12.9489 7.34882 13.1397 7.42784 13.2803 7.56849C13.421 7.70914 13.5 7.89991 13.5 8.09882C13.5 8.29773 13.421 8.4885 13.2803 8.62915C13.1397 8.7698 12.9489 8.84882 12.75 8.84882H8.5V13.0988C8.5 13.2977 8.42098 13.4885 8.28033 13.6291C8.13968 13.7698 7.94891 13.8488 7.75 13.8488C7.55109 13.8488 7.36032 13.7698 7.21967 13.6291C7.07902 13.4885 7 13.2977 7 13.0988V8.84882H2.75C2.55109 8.84882 2.36032 8.7698 2.21967 8.62915C2.07902 8.4885 2 8.29773 2 8.09882C2 7.89991 2.07902 7.70914 2.21967 7.56849C2.36032 7.42784 2.55109 7.34882 2.75 7.34882H7V3.09882C7 2.89991 7.07902 2.70914 7.21967 2.56849C7.36032 2.42784 7.55109 2.34882 7.75 2.34882Z"></path></svg>