<svg xmlns="http://www.w3.org/2000/svg" width="1em" height="0.9655172413793104em" viewBox="0 0 29 28" fill="currentColor" focusable="false"><path d="M13.8597 0.453999C14.1721 -0.154053 15.0413 -0.154053 15.3537 0.453999L19.2148 7.96947C19.3367 8.20683 19.5642 8.3721 19.8276 8.41473L28.1684 9.76442C28.8432 9.87362 29.1118 10.7003 28.6301 11.1853L22.6755 17.1798C22.4875 17.3691 22.4006 17.6365 22.4415 17.9002L23.7353 26.2499C23.84 26.9254 23.1367 27.4363 22.5266 27.128L14.9855 23.3173C14.7473 23.197 14.4661 23.197 14.2279 23.3173L6.68678 27.128C6.07665 27.4363 5.37345 26.9254 5.47813 26.2499L6.77194 17.9002C6.8128 17.6365 6.72591 17.3691 6.53785 17.1798L0.58335 11.1853C0.101591 10.7003 0.370192 9.87362 1.04502 9.76442L9.38579 8.41473C9.64921 8.3721 9.8767 8.20683 9.99864 7.96947L13.8597 0.453999Z" fill="#369B3D"></path></svg>