<svg xmlns="http://www.w3.org/2000/svg" width="1em" height="0.21014492753623187em" viewBox="0 0 138 29" fill="currentColor" focusable="false"><title>Blue Apron</title><desc>Blue Apron Text Logo</desc><g clip-path="url(#clip0_10151_990)"><path d="M136.338 22.2943L136.31 22.0548C136.157 20.6971 136.136 19.3253 136.136 18.2814V11.2715C136.136 9.64638 135.732 8.26068 134.967 7.26559C134.111 6.15192 132.814 5.5637 131.216 5.5637C129.222 5.5637 127.32 7.19119 126.176 9.39993V5.9729H122.237V22.2943H126.176V14.6172C126.176 11.3297 127.989 8.80008 130.138 8.80008C131.819 8.80008 132.17 10.3973 132.17 11.7389V22.2966H136.338V22.2943Z"></path><path d="M113.526 5.5637C109.115 5.5637 106.037 9.07676 106.037 14.1057C106.037 19.1695 109.118 22.7058 113.526 22.7058C117.936 22.7058 121.015 19.1695 121.015 14.1057C121.015 11.7761 120.301 9.63708 119.004 8.08399C117.627 6.43557 115.732 5.5637 113.526 5.5637ZM113.526 8.62338C115.56 8.62338 116.874 10.774 116.874 14.1034C116.874 17.4676 115.56 19.6415 113.526 19.6415C111.48 19.6415 110.208 17.5188 110.208 14.1034C110.208 10.7252 111.48 8.62338 113.526 8.62338Z"></path><path d="M106.59 6.54019C105.96 5.84735 105.356 5.5637 104.503 5.5637C102.966 5.5637 101.733 6.98659 100.834 9.15348V5.9729H96.8975V22.2943H101.031L101.01 22.0595C100.896 20.8063 100.836 19.4997 100.836 18.2814V13.8872C100.836 10.8089 102.366 9.35576 103.424 9.35576C103.998 9.35576 104.351 9.52548 104.877 10.0509L105.1 10.2741L106.686 6.64249L106.59 6.54019Z"></path><path d="M88.8693 5.5637C87.1232 5.5637 85.5143 6.53554 84.4704 8.50481V5.9729H80.5342V27.5186H84.668L84.6471 27.2837C84.5332 26.0282 84.4727 24.6426 84.4727 23.4266V19.8508C85.4027 21.6526 87.093 22.7035 88.7832 22.7035C92.7125 22.7035 95.4536 19.1788 95.4536 14.1336C95.4513 9.00701 92.8055 5.5637 88.8693 5.5637ZM91.2803 14.1336C91.2803 17.2049 89.8923 19.3509 87.9044 19.3509C86.0421 19.3509 84.4681 17.3491 84.4681 14.9799V13.4315C84.4681 10.9414 86.0095 8.91633 87.9044 8.91633C89.9248 8.91633 91.2803 11.0135 91.2803 14.1336Z"></path><path d="M67.8956 0.976499L60.2324 22.2943H64.5337L64.5522 22.099C64.6615 20.911 64.9522 20.0647 65.3195 18.9928L65.359 18.8812L66.1263 16.7167H73.1222L75.0496 22.2966H79.5136L71.8527 0.976499H67.8956ZM67.2423 13.4803L69.623 6.6983L71.9783 13.4803H67.2423Z"></path><path d="M51.537 16.3772C51.0767 17.8838 49.8351 19.6415 47.8589 19.6415C45.9105 19.6415 44.6202 17.8768 44.4621 15.0194H54.5595V14.8032C54.5595 12.0016 54.0434 9.78588 53.0273 8.22349C51.8788 6.4565 50.1211 5.56138 47.8008 5.56138C43.5298 5.56138 40.4282 9.36273 40.4282 14.5986C40.4282 19.4462 43.4135 22.7012 47.8589 22.7012C50.6954 22.7012 53.0529 21.2295 54.6758 18.4465L54.7757 18.2744L51.623 16.0936L51.537 16.3772ZM44.669 12.1062C45.0991 9.88818 46.2314 8.62339 47.7984 8.62339C49.3422 8.62339 50.3745 9.88818 50.6535 12.1062H44.669Z"></path><path d="M38.8101 18.2814V5.9729H34.9018V12.4968C34.9018 16.4028 33.5068 19.4695 30.9121 19.4695C29.2311 19.4695 28.8801 17.8722 28.8801 16.5307V5.97522H24.9438V16.9957C24.9438 18.6208 25.3484 20.0065 26.1133 21.0016C26.9689 22.1153 28.2663 22.7035 29.8635 22.7035C31.863 22.7035 34.0369 21.1272 34.9041 18.7255V22.2943H39.0077L38.9868 22.0595C38.8705 20.7854 38.8101 19.516 38.8101 18.2814Z"></path><path d="M22.6467 18.2814V0.976499H18.7104V22.2943H22.8443L22.8234 22.0595C22.7071 20.804 22.6467 19.4974 22.6467 18.2814Z"></path><path d="M12.0495 11.1227C14.8581 10.2695 16.3345 8.51876 16.3345 6.01242C16.3345 4.32913 15.5812 2.97831 14.1536 2.10412C12.6307 1.1718 10.7289 0.976499 9.39901 0.976499H0.829102V22.2943H9.04794C11.166 22.2943 13.1004 21.7317 14.5 20.7087C16.0624 19.5648 16.8878 17.9187 16.8878 15.9448C16.8901 13.292 15.3022 11.7086 12.0495 11.1227ZM8.28999 4.35936C11.2265 4.35936 11.8426 5.62415 11.8426 6.68435C11.8426 8.80706 9.99188 9.56501 8.26209 9.56501H5.05826V4.35936H8.28999ZM5.05826 12.9479H8.63874C10.0407 12.9479 12.3959 13.3036 12.3959 15.6821C12.3959 18.0652 10.3802 18.9138 8.49227 18.9138H5.05826V12.9479Z"></path></g><defs><clipPath id="clip0_10151_990"><rect width="137.639" height="28.3649" fill="white"></rect></clipPath></defs></svg>